<svg width="80" height="86" viewBox="0 0 80 86" fill="none" xmlns="http://www.w3.org/2000/svg">
<path d="M79.8263 38.6983L78.4615 46.7152C78.0673 49.0202 76.0757 50.6983 73.7405 50.6983H4.79476C1.8125 50.6983 -0.441865 48.0091 0.0737113 45.0774L1.47892 37.0608C1.8833 34.7659 3.87482 33.098 6.19997 33.098H75.1153C78.0875 33.098 80.3419 35.7666 79.8364 38.6983H79.8263ZM55.5437 5.61049L42.2802 82.0271C41.886 84.3219 39.8843 86 37.5592 86H28.7943C25.8222 86 23.5678 83.321 24.0733 80.3893L37.3367 3.9729C37.731 1.67808 39.7326 0 42.0578 0H50.8226C53.7948 0 56.0491 2.67878 55.5437 5.61049Z" fill="white"/>
</svg>
