<svg width="75" height="50" viewBox="0 0 75 50" fill="none" xmlns="http://www.w3.org/2000/svg">
<path d="M68.7364 39.6855L67.5647 46.1044C67.1541 48.3576 65.1915 50 62.8983 50H4.74699C1.80288 50 -0.430285 47.3463 0.0704144 44.4522L1.17205 38.0331C1.5626 35.7499 3.53527 34.0876 5.8485 34.0876H64.0698C67.034 34.0876 69.2671 36.7715 68.7364 39.6855ZM74.6346 5.57786L73.503 11.9967C73.1025 14.2699 71.1297 15.9224 68.8265 15.9224H10.6452C7.69112 15.9224 5.45795 13.2586 5.96867 10.3445L7.10025 3.92565C7.50081 1.65247 9.47361 0 11.7768 0H69.958C72.9122 0 75.1453 2.66379 74.6346 5.57786Z" fill="white"/>
</svg>
