<svg width="922" height="984" viewBox="0 0 922 984" fill="none" xmlns="http://www.w3.org/2000/svg">
<g opacity="0.25">
<path d="M268.972 437.38L352.606 370.057L327.92 422.941L268.972 437.38Z" fill="#CD776F"/>
<path d="M615.194 89.4176L522.494 77.62L591.318 0L615.194 89.4176Z" fill="#6476A4"/>
<path d="M109.35 401.167L0 524.496L152.217 557.607L109.35 401.167Z" fill="#34457E"/>
<path d="M469.511 182.707L419.859 198.587L442.573 281.48L469.511 182.707Z" fill="#D7948E"/>
<path d="M424.512 477.696L555.966 718.36L281.68 710.405L424.512 477.696Z" fill="#6476A4"/>
<path d="M502.672 359.28L567.263 478.917L424.512 477.696L502.672 359.28Z" fill="#34457E"/>
<path d="M572.667 238.923L645.773 123.619L507.645 117.465L572.667 238.923Z" fill="#34457E"/>
<path d="M775.496 609.671L844.361 488.623L710.465 488.212L775.496 609.671Z" fill="#6476A4"/>
<path d="M630.894 602.626L567.263 478.917L705.401 485.071L770.423 606.528L630.894 602.626Z" fill="#CC685F"/>
<path d="M690.712 722.422L630.894 602.626L555.966 718.36L622.969 844.17L690.712 722.422Z" fill="#34457E"/>
<path d="M770.423 606.528L690.712 722.422L847.683 730.898L770.423 606.528Z" fill="#6476A4"/>
<path d="M705.401 485.071L776.797 362.462L708.544 243.676L639.94 361.782L705.401 485.071Z" fill="#D7948E"/>
<path d="M502.672 359.28L572.667 238.923L708.544 243.676L639.94 361.782L502.672 359.28Z" fill="#CD776F"/>
<path d="M645.773 123.619L708.544 243.676L572.667 238.923L645.773 123.619Z" fill="#4C5E92"/>
<path d="M776.797 362.462L708.544 243.676L848.073 247.578L776.797 362.462Z" fill="#6476A4"/>
<path d="M839.297 485.471L911.703 371.288L771.744 365.564L705.401 485.071L839.297 485.471Z" fill="#001C59"/>
<path d="M622.779 841.969L470.831 846.232L410.903 714.147L555.646 717.129L622.779 841.969Z" fill="#001C59"/>
<path d="M690.712 722.422L622.969 844.17L764.599 844.691L690.712 722.422Z" fill="#CC685F"/>
<path d="M770.423 606.528L630.894 602.626L690.712 722.422L770.423 606.528Z" fill="#4C5E92"/>
<path d="M770.423 606.528L839.297 485.471L921.68 631.745L770.423 606.528Z" fill="#34457E"/>
<path d="M847.683 730.898L921.68 631.745L770.423 606.528L847.683 730.898Z" fill="#D78C7D"/>
<path d="M555.966 718.36L630.894 602.626L567.263 478.917L485.891 600.004L555.966 718.36Z" fill="#4C5E92"/>
<path d="M424.512 477.696L485.891 600.004L567.263 478.917L424.512 477.696Z" fill="#CC685F"/>
<path d="M289.065 474.764L355.057 592.149L424.512 477.696L289.065 474.764Z" fill="#34457E"/>
<path d="M502.672 359.28L567.263 478.917L639.94 361.782L502.672 359.28Z" fill="#4C5E92"/>
<path d="M705.401 485.071L567.263 478.917L639.94 361.782L705.401 485.071Z" fill="#34457E"/>
<path d="M622.969 844.17L699.998 984L764.599 844.691L622.969 844.17Z" fill="#34457E"/>
<path d="M764.599 844.691L690.712 722.422L847.683 730.898L764.599 844.691Z" fill="#D7948E"/>
</g>
</svg>
