<svg width="153" height="228" viewBox="0 0 153 228" fill="none" xmlns="http://www.w3.org/2000/svg">
<path fill-rule="evenodd" clip-rule="evenodd" d="M76.142 186.613H60.7064C55.0707 186.613 55.9016 186.853 54.6503 182.099C46.4621 151.428 27.8233 139.596 13.1084 117.013C0.34556 97.3931 -2.49733 72.6681 5.33057 50.6159C16.2516 20.0651 43.7894 0.985995 76.132 0.985995C108.475 0.985995 136.012 20.0651 146.933 50.6159C154.771 72.6681 151.918 97.3931 139.156 117.013C124.441 139.596 105.802 151.428 97.6136 182.099C96.3624 186.853 97.2032 186.613 91.5576 186.613H76.122H76.142ZM91.6877 180.427C96.1922 163.55 103.79 151.478 114.711 138.164C121.358 130.076 128.245 122.408 133.94 113.62C145.632 95.6715 148.305 72.8984 141.118 52.688C131.087 24.5697 105.862 7.15213 76.132 7.15213C46.402 7.15213 21.1765 24.5697 11.1464 52.688C3.96919 72.8984 6.57183 95.6615 18.3237 113.62C24.0194 122.418 30.9064 130.086 37.5531 138.164C48.4741 151.478 56.0717 163.55 60.5763 180.427H91.6877Z" fill="white"/>
<path fill-rule="evenodd" clip-rule="evenodd" d="M72.7586 143.34V181.979H68.5444V143.34C66.1119 143.34 63.4392 143.52 61.0668 143.159C53.0587 142.148 49.6153 134.541 53.1088 127.824C54.8305 124.611 57.8035 122.649 60.8866 122.118C62.6084 121.818 64.3301 121.998 65.9918 122.539C69.9658 123.96 71.9278 127.293 72.5184 131.037C72.9888 133.47 72.7586 136.563 72.7586 139.115H79.4654C79.5254 136.563 79.2852 133.47 79.7056 131.037C80.3563 127.293 82.3183 123.96 86.2923 122.539C87.9539 122.008 89.6757 121.828 91.3974 122.118C94.4805 122.649 97.4535 124.611 99.1152 127.824C102.679 134.541 99.2353 142.148 91.2172 143.159C88.7848 143.52 86.1722 143.34 83.7397 143.34V181.979H79.4654V143.34H72.7586ZM85.2812 128.304C85.9319 127.413 86.7628 126.823 87.7137 126.523C88.6647 126.162 89.6757 126.102 90.6767 126.282C92.5786 126.583 94.3604 127.834 95.4215 129.786C97.6137 133.95 95.7218 138.405 90.6767 139.055C88.6647 139.295 85.7517 139.115 83.7297 138.995V137.394C83.7297 134.541 83.4294 130.617 85.2712 128.294L85.2812 128.304ZM67.0028 128.304C66.3522 127.413 65.5213 126.823 64.5703 126.523C63.6194 126.162 62.6084 126.102 61.6074 126.282C59.7054 126.583 57.9237 127.834 56.8626 129.786C54.6604 133.95 56.5623 138.405 61.6074 139.055C63.6194 139.295 66.5323 139.115 68.5544 138.995V137.394C68.5544 134.541 68.8547 130.617 67.0128 128.294L67.0028 128.304Z" fill="white"/>
<path d="M92.3083 207.684H61.1168C57.8836 207.684 55.2509 205.052 55.2509 201.818C55.2509 198.585 57.8836 195.953 61.1168 195.953H92.3083C95.5416 195.953 98.1742 198.585 98.1742 201.818C98.1742 205.052 95.5416 207.684 92.3083 207.684ZM61.1168 198.756C59.4351 198.756 58.0637 200.127 58.0637 201.808C58.0637 203.49 59.4351 204.862 61.1168 204.862H92.3083C93.99 204.862 95.3614 203.49 95.3614 201.808C95.3614 200.127 93.99 198.756 92.3083 198.756H61.1168Z" fill="white"/>
<path d="M90.6566 216.663H62.7585C59.5252 216.663 56.8926 214.031 56.8926 210.797C56.8926 207.564 59.5252 204.932 62.7585 204.932H90.6566C93.8899 204.932 96.5225 207.564 96.5225 210.797C96.5225 214.031 93.8899 216.663 90.6566 216.663ZM62.7585 207.745C61.0768 207.745 59.7054 209.116 59.7054 210.797C59.7054 212.479 61.0768 213.851 62.7585 213.851H90.6566C92.3383 213.851 93.7097 212.479 93.7097 210.797C93.7097 209.116 92.3383 207.745 90.6566 207.745H62.7585Z" fill="white"/>
<path d="M92.3083 198.625H61.1168C57.8836 198.625 55.2509 195.992 55.2509 192.759C55.2509 189.526 57.8836 186.893 61.1168 186.893H92.3083C95.5416 186.893 98.1742 189.526 98.1742 192.759C98.1742 195.992 95.5416 198.625 92.3083 198.625ZM61.1168 189.706C59.4351 189.706 58.0637 191.078 58.0637 192.759C58.0637 194.441 59.4351 195.812 61.1168 195.812H92.3083C93.99 195.812 95.3614 194.441 95.3614 192.759C95.3614 191.078 93.99 189.706 92.3083 189.706H61.1168Z" fill="white"/>
<path d="M76.2721 227.014C73.1189 227.014 70.0358 225.923 67.5934 223.951C65.1809 222.009 63.4792 219.276 62.7885 216.273L62.3981 214.561H91.037L90.6466 216.273C89.9559 219.276 88.2542 222.009 85.8418 223.951C83.3893 225.923 80.3062 227.014 77.163 227.014H76.2721ZM66.0618 217.354C67.7235 221.458 71.7075 224.201 76.2721 224.201H77.153C81.7176 224.201 85.7016 221.458 87.3633 217.354H66.0618Z" fill="white"/>
<path fill-rule="evenodd" clip-rule="evenodd" d="M76.142 186.613H60.7064C55.0707 186.613 55.9016 186.853 54.6503 182.099C46.4621 151.428 27.8233 139.596 13.1084 117.013C0.34556 97.3931 -2.49733 72.6681 5.33057 50.6159C16.2516 20.0651 43.7894 0.985995 76.132 0.985995C108.475 0.985995 136.012 20.0651 146.933 50.6159C154.771 72.6681 151.918 97.3931 139.156 117.013C124.441 139.596 105.802 151.428 97.6136 182.099C96.3624 186.853 97.2032 186.613 91.5576 186.613H76.122H76.142ZM91.6877 180.427C96.1922 163.55 103.79 151.478 114.711 138.164C121.358 130.076 128.245 122.408 133.94 113.62C145.632 95.6715 148.305 72.8984 141.118 52.688C131.087 24.5697 105.862 7.15213 76.132 7.15213C46.402 7.15213 21.1765 24.5697 11.1464 52.688C3.96919 72.8984 6.57183 95.6615 18.3237 113.62C24.0194 122.418 30.9064 130.086 37.5531 138.164C48.4741 151.478 56.0717 163.55 60.5763 180.427H91.6877Z" stroke="white" stroke-width="1.97" stroke-miterlimit="10"/>
<path fill-rule="evenodd" clip-rule="evenodd" d="M72.7586 143.34V181.979H68.5444V143.34C66.1119 143.34 63.4392 143.52 61.0668 143.159C53.0587 142.148 49.6153 134.541 53.1088 127.824C54.8305 124.611 57.8035 122.649 60.8866 122.118C62.6084 121.818 64.3301 121.998 65.9918 122.539C69.9658 123.96 71.9278 127.293 72.5184 131.037C72.9888 133.47 72.7586 136.563 72.7586 139.115H79.4654C79.5254 136.563 79.2852 133.47 79.7056 131.037C80.3563 127.293 82.3183 123.96 86.2923 122.539C87.9539 122.008 89.6757 121.828 91.3974 122.118C94.4805 122.649 97.4535 124.611 99.1152 127.824C102.679 134.541 99.2353 142.148 91.2172 143.159C88.7848 143.52 86.1722 143.34 83.7397 143.34V181.979H79.4654V143.34H72.7586ZM85.2812 128.304C85.9319 127.413 86.7628 126.823 87.7137 126.523C88.6647 126.162 89.6757 126.102 90.6767 126.282C92.5786 126.583 94.3604 127.834 95.4215 129.786C97.6137 133.95 95.7218 138.405 90.6767 139.055C88.6647 139.295 85.7517 139.115 83.7297 138.995V137.394C83.7297 134.541 83.4294 130.617 85.2712 128.294L85.2812 128.304ZM67.0028 128.304C66.3522 127.413 65.5213 126.823 64.5703 126.523C63.6194 126.162 62.6084 126.102 61.6074 126.282C59.7054 126.583 57.9237 127.834 56.8626 129.786C54.6604 133.95 56.5623 138.405 61.6074 139.055C63.6194 139.295 66.5323 139.115 68.5544 138.995V137.394C68.5544 134.541 68.8547 130.617 67.0128 128.294L67.0028 128.304Z" stroke="white" stroke-width="1.97" stroke-miterlimit="10"/>
<path d="M92.3083 207.684H61.1168C57.8836 207.684 55.2509 205.052 55.2509 201.818C55.2509 198.585 57.8836 195.953 61.1168 195.953H92.3083C95.5416 195.953 98.1742 198.585 98.1742 201.818C98.1742 205.052 95.5416 207.684 92.3083 207.684ZM61.1168 198.756C59.4351 198.756 58.0637 200.127 58.0637 201.808C58.0637 203.49 59.4351 204.862 61.1168 204.862H92.3083C93.99 204.862 95.3614 203.49 95.3614 201.808C95.3614 200.127 93.99 198.756 92.3083 198.756H61.1168Z" stroke="white" stroke-width="1.97" stroke-miterlimit="10"/>
<path d="M90.6566 216.663H62.7585C59.5252 216.663 56.8926 214.031 56.8926 210.797C56.8926 207.564 59.5252 204.932 62.7585 204.932H90.6566C93.8899 204.932 96.5225 207.564 96.5225 210.797C96.5225 214.031 93.8899 216.663 90.6566 216.663ZM62.7585 207.745C61.0768 207.745 59.7054 209.116 59.7054 210.797C59.7054 212.479 61.0768 213.851 62.7585 213.851H90.6566C92.3383 213.851 93.7097 212.479 93.7097 210.797C93.7097 209.116 92.3383 207.745 90.6566 207.745H62.7585Z" stroke="white" stroke-width="1.97" stroke-miterlimit="10"/>
<path d="M92.3083 198.625H61.1168C57.8836 198.625 55.2509 195.992 55.2509 192.759C55.2509 189.526 57.8836 186.893 61.1168 186.893H92.3083C95.5416 186.893 98.1742 189.526 98.1742 192.759C98.1742 195.992 95.5416 198.625 92.3083 198.625ZM61.1168 189.706C59.4351 189.706 58.0637 191.078 58.0637 192.759C58.0637 194.441 59.4351 195.812 61.1168 195.812H92.3083C93.99 195.812 95.3614 194.441 95.3614 192.759C95.3614 191.078 93.99 189.706 92.3083 189.706H61.1168Z" stroke="white" stroke-width="1.97" stroke-miterlimit="10"/>
<path d="M76.2721 227.014C73.1189 227.014 70.0358 225.923 67.5934 223.951C65.1809 222.009 63.4792 219.276 62.7885 216.273L62.3981 214.561H91.037L90.6466 216.273C89.9559 219.276 88.2542 222.009 85.8418 223.951C83.3893 225.923 80.3062 227.014 77.163 227.014H76.2721ZM66.0618 217.354C67.7235 221.458 71.7075 224.201 76.2721 224.201H77.153C81.7176 224.201 85.7016 221.458 87.3633 217.354H66.0618Z" stroke="white" stroke-width="1.97" stroke-miterlimit="10"/>
</svg>
