<svg width="197" height="262" viewBox="0 0 197 262" fill="none" xmlns="http://www.w3.org/2000/svg">
<path d="M48.1474 199.644L56.324 186.958L25.9926 154.432L48.1474 199.644Z" fill="#6476A4"/>
<path d="M31.4837 106.255L0 51.4241L0.561193 96.0744L31.4837 106.255Z" fill="#CD776F"/>
<path d="M31.4837 106.255L56.324 186.958L25.9926 154.432L31.4837 106.255Z" fill="#CD776F"/>
<path d="M48.1474 199.644L75.7533 206.287L56.324 186.958L48.1474 199.644Z" fill="#4F5F93"/>
<path d="M45.943 223.262L47.967 255.597L68.8993 245.787L45.943 223.262Z" fill="#C0554B"/>
<path d="M41.9849 33.4578L111.025 3.13647L96.9862 84.01L41.9849 33.4578Z" fill="#6476A4"/>
<path d="M67.4464 0L111.025 3.13647L41.9849 33.4578L67.4464 0Z" fill="#4F5F93"/>
<path d="M26.1829 15.8922L67.4464 0L41.9849 33.4578L26.1829 15.8922Z" fill="#6476A4"/>
<path d="M0 51.4241L26.1829 15.8922L41.9849 33.4578L0 51.4241Z" fill="#4C5E92"/>
<path d="M41.9849 33.4578L31.4837 106.255L0 51.4241L41.9849 33.4578Z" fill="#34457E"/>
<path d="M96.9862 84.01L41.9849 33.4578L31.4837 106.255L96.9862 84.01Z" fill="#4C5E92"/>
<path d="M25.9926 154.432L31.4837 106.255L0.561193 96.0744L25.9926 154.432Z" fill="#D7948E"/>
<path d="M84.7314 154.583L96.9862 84.01L31.4837 106.255L84.7314 154.583Z" fill="#34457E"/>
<path d="M56.324 186.958L84.7314 154.583L31.4837 106.255L56.324 186.958Z" fill="#D7948E"/>
<path d="M84.7314 154.583L75.7533 206.287L56.324 186.958L84.7314 154.583Z" fill="#CD776F"/>
<path d="M48.1474 199.644L53.5985 225.105L57.4862 225.777L51.5042 200.465L48.1474 199.644Z" fill="#34457E"/>
<path d="M84.7314 154.573L75.7633 206.287L99.9521 194.533L84.7314 154.573Z" fill="#CD776F"/>
<path d="M84.7314 154.573L96.9862 83.9999L149.502 126.736L84.7314 154.573Z" fill="#6476A4"/>
<path d="M103.219 209.203L99.9521 194.533L138.5 173.962L103.219 209.203Z" fill="#6476A4"/>
<path d="M149.502 126.736L196.517 85.523L181.166 127.408L149.502 126.736Z" fill="#CD776F"/>
<path d="M149.502 126.736L99.9521 194.533L138.5 173.962L149.502 126.736Z" fill="#CD776F"/>
<path d="M103.219 209.203L75.7633 206.287L99.9521 194.533L103.219 209.203Z" fill="#4F5F93"/>
<path d="M97.387 232.19L84.7915 262L68.8993 245.797L97.387 232.19Z" fill="#C0554B"/>
<path d="M164.092 54.6305L111.035 3.10638L96.9862 83.9999L164.092 54.6305Z" fill="#34457E"/>
<path d="M151.917 14.6397L111.035 3.10638L164.092 54.6305L151.917 14.6397Z" fill="#4F5F93"/>
<path d="M184.383 43.3276L151.917 14.6397L164.092 54.6305L184.383 43.3276Z" fill="#6476A4"/>
<path d="M196.517 85.523L184.383 43.3276L164.092 54.6305L196.517 85.523Z" fill="#4C5E92"/>
<path d="M164.092 54.6305L149.502 126.736L196.517 85.523L164.092 54.6305Z" fill="#34457E"/>
<path d="M96.9862 83.9999L164.092 54.6305L149.502 126.736L96.9862 83.9999Z" fill="#4C5E92"/>
<path d="M138.5 173.962L149.502 126.736L181.166 127.408L138.5 173.962Z" fill="#D7948E"/>
<path d="M99.9521 194.533L84.7314 154.573L149.502 126.736L99.9521 194.533Z" fill="#D7948E"/>
<path d="M103.219 209.203L89.7716 231.388L85.994 230.737L99.872 208.863L103.219 209.203Z" fill="#34457E"/>
<path d="M97.387 232.19L45.943 223.231L68.8993 245.797L97.387 232.19Z" fill="#CD776F"/>
<path d="M84.7915 262L68.8993 245.797L47.967 255.567L84.7915 262Z" fill="#CD776F"/>
</svg>
