<svg width="401" height="179" viewBox="0 0 401 179" fill="none" xmlns="http://www.w3.org/2000/svg">
<path d="M45.444 0L74.7359 1.97145L28.2611 23.2075L45.444 0Z" fill="#4F5F93"/>
<path d="M17.6733 11.1485L45.444 0L28.2611 23.2075L17.6733 11.1485Z" fill="#6476A4"/>
<path d="M0 35.7968L17.6733 11.1485L28.2611 23.2075L0 35.7968Z" fill="#4C5E92"/>
<path d="M66.5498 168.486H61.0357L61.3059 166.765H65.9193C66.7599 166.765 67.5505 166.615 68.2811 166.315C69.0116 166.014 69.6121 165.574 70.0924 164.984C70.5728 164.403 70.883 163.663 71.0031 162.762C71.1332 161.901 71.0532 161.191 70.763 160.65C70.4828 160.1 70.0424 159.7 69.442 159.449C68.8515 159.189 68.151 159.059 67.3404 159.039H63.1673L59.7347 178.734H57.7632L61.476 157.268H67.3704C68.2411 157.288 69.0516 157.408 69.7822 157.648C70.5127 157.878 71.1332 158.218 71.6436 158.669C72.154 159.119 72.5342 159.689 72.7844 160.39C73.0346 161.081 73.1147 161.901 73.0146 162.832C72.9146 163.803 72.6143 164.643 72.114 165.344C71.6136 166.044 70.9831 166.605 70.2126 167.035C69.442 167.455 68.6013 167.746 67.6907 167.906L66.5398 168.496L66.5498 168.486ZM64.6584 178.724H58.4938L59.8548 176.983H64.7384C65.6391 176.983 66.4698 176.802 67.2103 176.452C67.9609 176.102 68.5713 175.591 69.0617 174.941C69.552 174.29 69.8523 173.5 69.9824 172.579C70.0924 171.769 70.0224 171.068 69.7822 170.468C69.542 169.867 69.1517 169.387 68.6013 169.047C68.0509 168.706 67.3704 168.516 66.5598 168.486H62.8771L63.1973 166.765H68.0509L68.3312 167.395C69.1818 167.545 69.9023 167.866 70.4727 168.366C71.0431 168.866 71.4535 169.487 71.7037 170.217C71.9539 170.948 72.0439 171.729 71.9639 172.549C71.8238 173.87 71.4234 174.981 70.7429 175.892C70.0724 176.802 69.2118 177.503 68.151 177.993C67.1002 178.484 65.9393 178.724 64.6584 178.724Z" fill="#CC685F"/>
<path d="M90.5178 156.958H92.5092L90.0074 171.668C89.7772 173.07 89.3069 174.31 88.5763 175.391C87.8458 176.472 86.9151 177.293 85.7842 177.873C84.6534 178.454 83.3524 178.734 81.8813 178.724C80.4903 178.704 79.3194 178.394 78.3687 177.793C77.428 177.193 76.7375 176.362 76.3171 175.311C75.8968 174.251 75.7667 173.04 75.9368 171.678L78.4588 156.948H80.4502L77.9484 171.678C77.8083 172.669 77.8683 173.56 78.1185 174.35C78.3687 175.141 78.809 175.772 79.4495 176.242C80.09 176.712 80.9306 176.952 81.9714 176.972C83.0822 177.003 84.063 176.792 84.9036 176.342C85.7442 175.892 86.4347 175.271 86.9551 174.471C87.4755 173.67 87.8257 172.739 88.0059 171.678L90.5278 156.948L90.5178 156.958Z" fill="#CC685F"/>
<path d="M97.1427 157.268H103.477C104.738 157.298 105.829 157.558 106.75 158.058C107.671 158.559 108.361 159.269 108.811 160.19C109.262 161.111 109.412 162.232 109.272 163.533C109.162 164.603 108.861 165.534 108.361 166.334C107.861 167.135 107.22 167.796 106.44 168.336C105.659 168.876 104.778 169.297 103.798 169.597L103.117 169.847H96.3321L96.6123 168.126H101.876C102.797 168.126 103.648 167.926 104.408 167.546C105.179 167.165 105.819 166.635 106.33 165.954C106.85 165.274 107.17 164.463 107.29 163.543C107.42 162.632 107.34 161.841 107.07 161.181C106.79 160.52 106.35 160 105.719 159.629C105.099 159.259 104.328 159.069 103.407 159.049H98.8039L95.4014 178.744H93.4099L97.1227 157.278L97.1427 157.268ZM105.459 178.724L102.116 169.086H104.108L107.601 178.534V178.724H105.459Z" fill="#CC685F"/>
<path d="M116.827 157.268L113.085 178.734H111.113L114.826 157.268H116.827ZM123.813 176.972L123.492 178.724H112.564L112.854 176.972H123.813ZM124.183 166.805L123.893 168.526H114.336L114.646 166.805H124.183ZM127.115 157.268L126.825 159.019H115.987L116.277 157.268H127.115Z" fill="#CC685F"/>
<path d="M137.313 158.809L127.155 178.724H125.014L136.202 157.258H137.663L137.313 158.809ZM140.215 171.058L139.905 172.799H129.197L129.507 171.058H140.215ZM139.885 178.724L136.572 158.629L136.722 157.258H138.053L141.846 178.724H139.885Z" fill="#CC685F"/>
<path d="M160.06 156.958H162.051L159.549 171.668C159.319 173.07 158.849 174.31 158.118 175.391C157.388 176.472 156.457 177.293 155.326 177.873C154.195 178.454 152.894 178.734 151.423 178.724C150.032 178.704 148.861 178.394 147.911 177.793C146.97 177.193 146.279 176.362 145.859 175.311C145.439 174.251 145.309 173.04 145.479 171.678L148.001 156.948H149.992L147.49 171.678C147.35 172.669 147.41 173.56 147.66 174.35C147.911 175.141 148.351 175.772 148.992 176.242C149.632 176.712 150.473 176.952 151.513 176.972C152.624 177.003 153.605 176.792 154.446 176.342C155.286 175.892 155.977 175.271 156.497 174.471C157.018 173.67 157.368 172.739 157.548 171.678L160.07 156.948L160.06 156.958Z" fill="#CC685F"/>
<path d="M175.842 157.268L172.099 178.734H170.127L173.84 157.268H175.842ZM175.641 178.724H171.128L171.468 176.972H175.681C177.203 176.982 178.534 176.642 179.664 175.952C180.795 175.261 181.716 174.34 182.427 173.17C183.137 172.009 183.607 170.708 183.837 169.267L184.218 166.675C184.368 165.734 184.388 164.803 184.288 163.903C184.188 163.002 183.938 162.181 183.547 161.461C183.157 160.74 182.597 160.16 181.886 159.72C181.176 159.279 180.285 159.049 179.214 159.019H174.45L174.761 157.248H179.244C180.595 157.278 181.736 157.548 182.687 158.068C183.637 158.589 184.398 159.289 184.978 160.17C185.559 161.051 185.949 162.051 186.149 163.182C186.349 164.303 186.369 165.484 186.219 166.715L185.819 169.267C185.609 170.608 185.229 171.849 184.668 173C184.108 174.15 183.397 175.151 182.527 176.012C181.656 176.862 180.645 177.533 179.484 178.003C178.323 178.474 177.042 178.714 175.641 178.724Z" fill="#CC685F"/>
<path d="M193.985 155.777L193.695 157.518C193.595 158.158 193.415 158.769 193.165 159.369C192.904 159.96 192.584 160.52 192.204 161.031C191.814 161.541 191.383 162.011 190.903 162.442L189.812 161.541C190.292 160.941 190.703 160.32 191.043 159.67C191.383 159.019 191.623 158.319 191.773 157.558L192.084 155.777H194.005H193.985Z" fill="#CC685F"/>
<path d="M199.559 157.268L195.817 178.734H193.845L197.558 157.268H199.559ZM206.545 176.972L206.224 178.724H195.296L195.586 176.972H206.545ZM206.915 166.805L206.625 168.526H197.067L197.378 166.805H206.915ZM209.847 157.268L209.557 159.019H198.719L199.009 157.268H209.847ZM202.642 155.527L206.034 151.353H208.526L204.443 155.527H202.642Z" fill="#CC685F"/>
<path d="M227.32 157.268L227.03 159.019H211.798L212.089 157.268H227.32ZM220.715 157.268L216.972 178.734H215.011L218.744 157.268H220.715Z" fill="#CC685F"/>
<path d="M242.331 156.958H244.323L241.821 171.668C241.591 173.07 241.12 174.31 240.39 175.391C239.659 176.472 238.729 177.293 237.598 177.873C236.467 178.454 235.166 178.734 233.695 178.724C232.304 178.704 231.133 178.394 230.182 177.793C229.241 177.193 228.551 176.362 228.131 175.311C227.71 174.251 227.58 173.04 227.75 171.678L230.272 156.948H232.264L229.762 171.678C229.622 172.669 229.682 173.56 229.932 174.35C230.182 175.141 230.622 175.772 231.263 176.242C231.903 176.712 232.744 176.952 233.785 176.972C234.896 177.003 235.876 176.792 236.717 176.342C237.558 175.892 238.248 175.271 238.769 174.471C239.289 173.67 239.639 172.739 239.819 171.678L242.341 156.948L242.331 156.958Z" fill="#CC685F"/>
<path d="M250.968 157.268L247.225 178.734H245.253L248.966 157.268H250.968ZM250.778 178.724H246.264L246.605 176.972H250.818C252.339 176.982 253.67 176.642 254.801 175.952C255.931 175.261 256.852 174.34 257.563 173.17C258.273 172.009 258.744 170.708 258.974 169.267L259.354 166.675C259.504 165.734 259.524 164.803 259.424 163.903C259.324 163.002 259.074 162.181 258.684 161.461C258.293 160.74 257.733 160.16 257.022 159.72C256.312 159.279 255.421 159.049 254.35 159.019H249.587L249.897 157.248H254.38C255.731 157.278 256.872 157.548 257.823 158.068C258.774 158.589 259.534 159.289 260.115 160.17C260.695 161.051 261.085 162.051 261.285 163.182C261.486 164.303 261.506 165.484 261.356 166.715L260.955 169.267C260.745 170.608 260.365 171.849 259.804 173C259.244 174.15 258.533 175.151 257.663 176.012C256.792 176.862 255.781 177.533 254.621 178.003C253.46 178.474 252.179 178.714 250.778 178.724Z" fill="#CC685F"/>
<path d="M269.362 157.268L265.619 178.734H263.647L267.36 157.268H269.362ZM276.357 176.972L276.036 178.724H265.108L265.399 176.972H276.357ZM276.727 166.805L276.437 168.526H266.88L267.19 166.805H276.727ZM279.659 157.268L279.369 159.019H268.531L268.821 157.268H279.659Z" fill="#CC685F"/>
<path d="M108.481 41.2909H91.3283L88.7364 56.2022H109.052L107.39 65.6292H76.0269L85.7642 9.38715H117.088L115.426 18.8542H95.2213L92.8995 32.1442H110.092L108.471 41.3009L108.481 41.2909Z" fill="#001C59"/>
<path d="M130.728 23.7878L130.037 27.7307C132.919 24.5083 136.202 22.9572 139.885 23.0573C143.878 23.1574 146.48 25.0389 147.691 28.7016C150.853 24.8388 154.386 22.9472 158.278 23.0272C161.211 23.0773 163.462 24.1781 165.023 26.3298C166.585 28.4814 167.345 31.5336 167.325 35.5065L167.135 39.0592L162.732 65.6392H152.034L156.477 38.9891L156.667 36.8276C156.877 33.7353 155.847 32.1942 153.575 32.1942C151.743 32.1942 150.072 33.4452 148.551 35.937L148.321 37.7883L143.497 65.6392H132.839L137.243 39.0592L137.473 36.8977C137.683 33.7554 136.662 32.1842 134.421 32.1842C133.34 32.1842 132.419 32.4844 131.659 33.0948C130.898 33.6953 130.197 34.4157 129.557 35.2363L124.263 65.6392H113.605L120.87 23.8479L130.758 23.8078L130.728 23.7878Z" fill="#001C59"/>
<path d="M190.132 65.6091C186.58 65.459 183.898 63.7778 182.096 60.5854L180.745 64.7985H170.818L181.136 5.46405H191.794L187.74 26.4399C190.162 23.5578 192.904 22.1367 195.967 22.1868C199.619 22.2368 202.341 23.6077 204.133 26.2797C205.924 28.9617 206.725 32.8447 206.545 37.9486C206.334 43.893 205.584 49.0267 204.283 53.34C202.982 57.6532 201.13 60.8055 198.739 62.807C196.347 64.7985 193.475 65.7392 190.122 65.6091H190.132ZM196.047 38.0785C196.127 35.6767 195.837 33.9756 195.196 32.9749C194.556 31.9741 193.535 31.4436 192.144 31.3936C190.162 31.3135 188.371 32.3442 186.77 34.4858L183.447 53.6703C184.218 55.5317 185.679 56.5124 187.811 56.6124C191.804 56.8226 194.185 53.9905 194.956 48.1361L195.306 45.2739L196.037 38.0785H196.047Z" fill="#001C59"/>
<path d="M226.439 65.6192C223.067 65.5892 220.205 64.7686 217.843 63.1474C215.491 61.5262 213.79 59.2545 212.749 56.3323C211.708 53.4101 211.388 50.0776 211.798 46.3448L212.149 43.4828C212.999 36.5576 215.101 31.2535 218.463 27.5908C221.826 23.918 226.109 22.1467 231.303 22.2768C235.116 22.3768 238.108 23.5678 240.28 25.8495C242.451 28.1312 243.722 31.3136 244.083 35.4067C244.293 37.8485 244.233 40.2502 243.932 42.592L243.202 47.6158H222.346C222.216 48.7266 222.176 49.7874 222.226 50.8181C222.406 54.5309 224.218 56.4225 227.67 56.4925C230.893 56.5926 234.005 55.3715 237.017 52.8196L240.61 59.4647C239.189 61.3962 237.217 62.9171 234.686 64.0179C232.154 65.1288 229.402 65.6492 226.439 65.5992V65.6192ZM230.262 31.2835C227.2 31.1534 225.058 33.115 223.848 37.158L223.077 39.9802L233.695 40.02C233.955 38.5289 234.095 37.3181 234.115 36.3874C234.215 33.115 232.934 31.4136 230.252 31.2935L230.262 31.2835Z" fill="#001C59"/>
<path d="M264.878 22.1667C267.941 22.2668 270.422 23.6979 272.334 26.45L276.277 5.43424H287.015L276.737 64.7684H267.16L267.74 60.5152C265.058 63.9178 262.116 65.6091 258.894 65.6091C255.311 65.5591 252.619 64.1782 250.798 61.4762C248.986 58.7741 248.116 54.8811 248.186 49.8073L248.306 47.3355C248.896 38.8391 250.578 32.4843 253.35 28.2712C256.122 24.058 259.965 22.0166 264.878 22.1467V22.1667ZM258.814 49.6673C258.684 51.909 258.944 53.6001 259.604 54.7509C260.265 55.9018 261.276 56.4724 262.637 56.4724C264.468 56.5225 266.219 55.5616 267.89 53.5801L271.253 34.3858C270.302 32.4244 268.921 31.4136 267.12 31.3335C263.307 31.1233 260.915 33.8854 259.934 39.5997L259.514 42.5318L258.824 49.6773L258.814 49.6673Z" fill="#001C59"/>
<path d="M303.307 22.1667C306.369 22.2668 308.851 23.6979 310.763 26.45L314.705 5.43424H325.443L315.166 64.7684H305.589L306.169 60.5152C303.487 63.9178 300.545 65.6091 297.322 65.6091C293.74 65.5591 291.048 64.1782 289.226 61.4762C287.415 58.7741 286.544 54.8811 286.614 49.8073L286.735 47.3355C287.325 38.8391 289.006 32.4843 291.778 28.2712C294.55 24.058 298.393 22.0166 303.307 22.1467V22.1667ZM297.242 49.6673C297.112 51.909 297.373 53.6001 298.033 54.7509C298.694 55.9018 299.704 56.4724 301.065 56.4724C302.897 56.5225 304.648 55.5616 306.319 53.5801L309.682 34.3858C308.731 32.4244 307.35 31.4136 305.549 31.3335C301.736 31.1233 299.344 33.8854 298.363 39.5997L297.943 42.5318L297.252 49.6773L297.242 49.6673Z" fill="#001C59"/>
<path d="M340.425 65.6192C337.052 65.5892 334.19 64.7686 331.828 63.1474C329.476 61.5262 327.775 59.2545 326.734 56.3323C325.694 53.4101 325.373 50.0776 325.784 46.3448L326.134 43.4828C326.985 36.5576 329.086 31.2535 332.449 27.5908C335.811 23.918 340.094 22.1467 345.288 22.2768C349.101 22.3768 352.093 23.5678 354.265 25.8495C356.437 28.1312 357.708 31.3136 358.068 35.4067C358.278 37.8485 358.218 40.2502 357.918 42.592L357.187 47.6158H336.332C336.201 48.7266 336.161 49.7874 336.211 50.8181C336.392 54.5309 338.203 56.4225 341.656 56.4925C344.878 56.5926 347.99 55.3715 351.003 52.8196L354.595 59.4647C353.174 61.3962 351.203 62.9171 348.671 64.0179C346.139 65.1288 343.387 65.6492 340.425 65.5992V65.6192ZM344.258 31.2835C341.195 31.1534 339.054 33.115 337.843 37.158L337.072 39.9802L347.69 40.02C347.95 38.5289 348.09 37.3181 348.11 36.3874C348.21 33.115 346.93 31.4136 344.248 31.2935L344.258 31.2835Z" fill="#001C59"/>
<path d="M378.863 22.1667C381.926 22.2668 384.408 23.6979 386.319 26.45L390.262 5.43424H401L390.722 64.7684H381.145L381.726 60.5152C379.044 63.9178 376.101 65.6091 372.879 65.6091C369.296 65.5591 366.604 64.1782 364.783 61.4762C362.962 58.7741 362.101 54.8811 362.171 49.8073L362.291 47.3355C362.882 38.8391 364.563 32.4843 367.335 28.2712C370.107 24.058 373.95 22.0166 378.863 22.1467V22.1667ZM372.799 49.6673C372.669 51.909 372.929 53.6001 373.59 54.7509C374.25 55.9018 375.261 56.4724 376.622 56.4724C378.453 56.5225 380.204 55.5616 381.876 53.5801L385.238 34.3858C384.287 32.4244 382.906 31.4136 381.105 31.3335C377.292 31.1233 374.901 33.8854 373.92 39.5997L373.499 42.5318L372.809 49.6773L372.799 49.6673Z" fill="#001C59"/>
<path d="M75.0762 135.111H63.9879L73.7652 78.8691H84.8535L75.0762 135.111Z" fill="#001C59"/>
<path d="M101.076 93.2799L100.305 97.4932C103.237 94.0707 106.5 92.4094 110.082 92.5095C113.015 92.5596 115.256 93.6602 116.787 95.8118C118.319 97.9634 119.069 101.016 119.049 104.989L118.819 108.541L114.376 135.121H103.678L108.081 108.471L108.271 106.19C108.371 103.177 107.24 101.666 104.868 101.666C103.758 101.666 102.817 101.966 102.046 102.577C101.276 103.177 100.555 103.898 99.8847 104.719L94.5908 135.121H83.8527L91.1182 93.33L101.086 93.2899L101.076 93.2799Z" fill="#001C59"/>
<path d="M164.923 78.8691L168.206 119.309L185.469 78.8691H200.07L190.292 135.111H179.164L181.866 119.549L186.73 97.3428L169.507 135.121H161.971L157.718 96.0719L154.516 120.29L151.964 135.121H140.875L150.613 78.8791H164.903L164.923 78.8691Z" fill="#001C59"/>
<path d="M210.117 135.111H199.419L206.685 93.3199H217.383L210.117 135.111ZM208.066 82.7021C208.066 80.9208 208.626 79.4796 209.747 78.3588C210.868 77.2379 212.239 76.6776 213.86 76.6776C215.451 76.6276 216.812 77.148 217.933 78.2388C219.054 79.3296 219.614 80.6905 219.614 82.3117C219.614 84.113 219.054 85.5743 217.933 86.6951C216.812 87.8159 215.441 88.3763 213.82 88.3763C212.169 88.4263 210.798 87.9059 209.707 86.8151C208.616 85.7243 208.066 84.3534 208.066 82.7021Z" fill="#001C59"/>
<path d="M235.606 93.2799L234.836 97.4932C237.768 94.0707 241.03 92.4094 244.613 92.5095C247.545 92.5596 249.787 93.6602 251.318 95.8118C252.849 97.9634 253.6 101.016 253.58 104.989L253.35 108.541L248.906 135.121H238.208L242.612 108.471L242.802 106.19C242.902 103.177 241.771 101.666 239.399 101.666C238.288 101.666 237.348 101.966 236.577 102.577C235.806 103.177 235.086 103.898 234.415 104.719L229.121 135.121H218.383L225.649 93.33L235.616 93.2899L235.606 93.2799Z" fill="#001C59"/>
<path d="M275.356 91.6587C278.418 91.7587 280.9 93.1898 282.812 95.9419L286.755 74.9262H297.493L287.215 134.261H277.638L278.218 130.007C275.536 133.41 272.594 135.101 269.372 135.101C265.789 135.051 263.097 133.67 261.275 130.968C259.464 128.266 258.593 124.373 258.663 119.299L258.784 116.827C259.374 108.331 261.055 101.976 263.827 97.7633C266.599 93.5502 270.442 91.5085 275.356 91.6386V91.6587ZM269.291 119.159C269.161 121.401 269.422 123.092 270.082 124.243C270.743 125.394 271.753 125.964 273.114 125.964C274.946 126.014 276.697 125.054 278.368 123.072L281.731 103.878C280.78 101.916 279.399 100.905 277.598 100.825C273.785 100.615 271.393 103.377 270.412 109.092L269.992 112.024L269.301 119.169L269.291 119.159Z" fill="#001C59"/>
<path d="M32.074 137.913L37.5881 129.127L17.2729 106.8L32.074 137.913Z" fill="#6476A4"/>
<path d="M21.0557 73.515L0 35.7968L0.290195 66.6199L21.0557 73.515Z" fill="#CD776F"/>
<path d="M21.0557 73.515L37.5881 129.127L17.2729 106.8L21.0557 73.515Z" fill="#CD776F"/>
<path d="M32.074 137.913L50.6179 142.377L37.5881 129.127L32.074 137.913Z" fill="#4F5F93"/>
<path d="M30.5429 154.225L31.8338 176.542L45.9344 169.677L30.5429 154.225Z" fill="#C0554B"/>
<path d="M28.2611 23.2075L74.7359 1.97145L65.1287 57.8634L28.2611 23.2075Z" fill="#6476A4"/>
<path d="M28.2611 23.2075L21.0557 73.515L0 35.7968L28.2611 23.2075Z" fill="#34457E"/>
<path d="M65.1287 57.8634L28.2611 23.2075L21.0557 73.515L65.1287 57.8634Z" fill="#4C5E92"/>
<path d="M17.2729 106.8L21.0557 73.515L0.290195 66.6199L17.2729 106.8Z" fill="#D7948E"/>
<path d="M56.7525 106.64L65.1287 57.8634L21.0557 73.515L56.7525 106.64Z" fill="#34457E"/>
<path d="M37.5881 129.127L56.7525 106.64L21.0557 73.515L37.5881 129.127Z" fill="#D7948E"/>
<path d="M56.7525 106.64L50.6179 142.377L37.5881 129.127L56.7525 106.64Z" fill="#CD776F"/>
<path d="M32.074 137.913L35.6867 155.466L38.2987 155.917L34.3257 138.464L32.074 137.913Z" fill="#34457E"/>
<path d="M30.5429 154.225L48.086 157.238L45.9344 169.677L30.5429 154.225Z" fill="#CD776F"/>
<path d="M31.8338 176.542L45.9344 169.677L44.3932 178.724L31.8338 176.542Z" fill="#CD776F"/>
</svg>
