<svg width="120" height="243" viewBox="0 0 120 243" fill="none" xmlns="http://www.w3.org/2000/svg">
<path d="M22.8083 183.901L32.8471 173.521L11.5849 137.301L22.8083 183.901Z" fill="#6476A4"/>
<path d="M26.2917 93.0801L8.4527 35.6979L0 77.7307L26.2917 93.0801Z" fill="#CD776F"/>
<path d="M26.2917 93.0801L32.8471 173.521L11.5849 137.301L26.2917 93.0801Z" fill="#CD776F"/>
<path d="M22.8083 183.901L46.7709 195.295L32.8471 173.521L22.8083 183.901Z" fill="#4F5F93"/>
<path d="M16.042 205.676L11.3941 236.425L32.5559 231.124L16.042 205.676Z" fill="#C0554B"/>
<path d="M50.5455 26.663L119.894 11.0827L90.7812 84.4265L50.5455 26.663Z" fill="#6476A4"/>
<path d="M80.5918 0L119.894 11.0827L50.5455 26.663L80.5918 0Z" fill="#4F5F93"/>
<path d="M39.5832 7.20782L80.5918 0L50.5356 26.663L39.5832 7.20782Z" fill="#6476A4"/>
<path d="M8.4527 35.6979L39.5832 7.20782L50.5356 26.663L8.4527 35.6979Z" fill="#4C5E92"/>
<path d="M50.5356 26.663L26.2917 93.0801L8.4527 35.6979L50.5356 26.663Z" fill="#34457E"/>
<path d="M90.7812 84.4265L50.5455 26.663L26.2917 93.0801L90.7812 84.4265Z" fill="#4C5E92"/>
<path d="M11.5849 137.301L26.2917 93.0801L0 77.7307L11.5849 137.301Z" fill="#D7948E"/>
<path d="M65.3829 148.414L90.7812 84.4265L26.2917 93.0801L65.3829 148.414Z" fill="#34457E"/>
<path d="M32.8471 173.521L65.3829 148.414L26.2917 93.0801L32.8471 173.521Z" fill="#D7948E"/>
<path d="M65.3829 148.414L46.7709 195.295L32.8471 173.521L65.3829 148.414Z" fill="#CD776F"/>
<path d="M22.8083 183.901L22.6878 208.838L26.111 210.193L25.7195 185.307L22.8083 183.901Z" fill="#34457E"/>
<path d="M16.042 205.676L39.0611 214.811L32.5559 231.124L16.042 205.676Z" fill="#CD776F"/>
<path d="M11.3941 236.425L32.5559 231.124L27.8678 243L11.3941 236.425Z" fill="#CD776F"/>
</svg>
