<svg width="301" height="317" viewBox="0 0 301 317" fill="none" xmlns="http://www.w3.org/2000/svg">
<path d="M139.704 177.716L140.914 270.992L59.3355 234.59V130.678L139.704 177.716Z" fill="#CC685F"/>
<path d="M111.176 77.0561L53.9323 102.661L66.2796 34.1603L111.176 77.0561Z" fill="#6476A4"/>
<path d="M255.593 14.8988L235.711 23.7842L240.003 0L255.593 14.8988Z" fill="#6476A4"/>
<path d="M22.9137 188.493L0 214.938L41.9551 254.502L22.9137 188.493Z" fill="#D7948E"/>
<path d="M139.003 177.576L140.634 85.9813L59.3355 130.678L139.003 177.576Z" fill="#34457E"/>
<path d="M301 272.293L299.109 177.106L218.531 132.869L220.452 224.494L301 272.293Z" fill="#D7948E"/>
<path d="M140.914 270.992L139.003 177.576L218.531 132.869L220.452 224.494L140.914 270.992Z" fill="#CD776F"/>
<path d="M140.634 85.9813L218.531 132.869L139.003 177.576L140.634 85.9813Z" fill="#4C5E92"/>
<path d="M299.109 177.106L218.531 132.869L299.849 86.3815L299.109 177.106Z" fill="#6476A4"/>
<path d="M140.914 270.992L219.701 316.989L220.452 224.494L140.914 270.992Z" fill="#4C5E92"/>
<path d="M301 272.293L219.701 316.989L220.452 224.494L301 272.293Z" fill="#34457E"/>
</svg>
