<svg preserveAspectRatio="none" width="100%" height="100%" overflow="visible" style="display: block;" viewBox="0 0 2173.39 595.33" fill="none" xmlns="http://www.w3.org/2000/svg">
<g id="accompagnement-cta-decor">
<path id="accompagnement-cta-bg" d="M2173.39 430.32H34.21L199.71 0H2173.39V430.32Z" fill="var(--fill-0, #001C59)"/>
<g id="mongolfiere">
<path d="M22.72 242.49L32.72 232.15L11.54 196.07L22.72 242.49Z" fill="#6476A4"/>
<path d="M26.19 152.02L8.42 94.8599L0 136.73L26.19 152.02Z" fill="var(--fill-0, #CD776F)"/>
<path d="M26.19 152.02L32.72 232.15L11.54 196.07L26.19 152.02Z" fill="var(--fill-0, #CD776F)"/>
<path d="M22.72 242.49L46.59 253.84L32.72 232.15L22.72 242.49Z" fill="#4F5F93"/>
<path d="M15.98 264.18L11.35 294.81L32.43 289.53L15.98 264.18Z" fill="#C0554B"/>
<path d="M50.35 85.8599L119.43 70.3398L90.43 143.4L50.35 85.8599Z" fill="#6476A4"/>
<path d="M80.28 59.3L119.43 70.3398L50.35 85.8599L80.28 59.3Z" fill="#4F5F93"/>
<path d="M39.4301 66.48L80.28 59.3L50.34 85.8599L39.4301 66.48Z" fill="#6476A4"/>
<path d="M8.42 94.8599L39.4301 66.48L50.34 85.8599L8.42 94.8599Z" fill="#4C5E92"/>
<path d="M50.34 85.8599L26.19 152.02L8.42 94.8599L50.34 85.8599Z" fill="#34457E"/>
<path d="M90.43 143.4L50.35 85.8599L26.19 152.02L90.43 143.4Z" fill="#4C5E92"/>
<path d="M11.54 196.07L26.19 152.02L0 136.73L11.54 196.07Z" fill="#D7948E"/>
<path d="M65.1299 207.14L90.43 143.4L26.19 152.02L65.1299 207.14Z" fill="#34457E"/>
<path d="M32.72 232.15L65.1299 207.14L26.19 152.02L32.72 232.15Z" fill="#D7948E"/>
<path d="M65.1299 207.14L46.59 253.84L32.72 232.15L65.1299 207.14Z" fill="var(--fill-0, #CD776F)"/>
<path d="M22.72 242.49L22.6 267.33L26.01 268.68L25.62 243.89L22.72 242.49Z" fill="#34457E"/>
<path d="M15.98 264.18L38.91 273.28L32.43 289.53L15.98 264.18Z" fill="var(--fill-0, #CD776F)"/>
<path d="M11.35 294.81L32.43 289.53L27.76 301.36L11.35 294.81Z" fill="var(--fill-0, #CD776F)"/>
</g>
<g id="motif-droite">
<path d="M1790.57 456.14L1791.78 549.36L1710.25 512.98V409.13L1790.57 456.14Z" fill="#CC685F"/>
<path d="M1762.06 355.54L1704.85 381.13L1717.19 312.67L1762.06 355.54Z" fill="#6476A4"/>
<path d="M1906.39 293.42L1886.52 302.3L1890.81 278.53L1906.39 293.42Z" fill="#6476A4"/>
<path d="M1673.85 466.91L1650.95 493.34L1692.88 532.88L1673.85 466.91Z" fill="#D7948E"/>
<path d="M1789.87 456L1791.5 364.46L1710.25 409.13L1789.87 456Z" fill="var(--fill-0, #34457E)"/>
<path d="M1951.77 550.66L1949.88 455.53L1869.35 411.32L1871.27 502.89L1951.77 550.66Z" fill="#D7948E"/>
<path d="M1791.78 549.36L1789.87 456L1869.35 411.32L1871.27 502.89L1791.78 549.36Z" fill="#CD776F"/>
<path d="M1791.5 364.46L1869.35 411.32L1789.87 456L1791.5 364.46Z" fill="#4C5E92"/>
<path d="M1949.88 455.53L1869.35 411.32L1950.62 364.86L1949.88 455.53Z" fill="#6476A4"/>
<path d="M1791.78 549.36L1870.52 595.33L1871.27 502.89L1791.78 549.36Z" fill="#4C5E92"/>
<path d="M1951.77 550.66L1870.52 595.33L1871.27 502.89L1951.77 550.66Z" fill="var(--fill-0, #34457E)"/>
</g>
</g>
</svg>
