<svg preserveAspectRatio="none" width="100%" height="100%" overflow="visible" style="display: block;" viewBox="0 0 74.6033 49.9302" fill="none" xmlns="http://www.w3.org/2000/svg">
<path id="bandeau-egal" d="M68.6404 39.6301L67.4703 46.04C67.0603 48.29 65.1004 49.9302 62.8104 49.9302H4.74036C1.80036 49.9302 -0.429684 47.2801 0.0703161 44.3901L1.17041 37.98C1.56041 35.7 3.53034 34.04 5.84034 34.04H63.9804C66.9404 34.04 69.1704 36.7201 68.6404 39.6301ZM74.5304 5.57007L73.4004 11.98C73.0004 14.25 71.0303 15.9001 68.7303 15.9001H10.6304C7.68037 15.9001 5.45033 13.2401 5.96033 10.3301L7.09034 3.92017C7.49034 1.65017 9.46038 0 11.7604 0H69.8604C72.8104 0 75.0404 2.66007 74.5304 5.57007Z" fill="var(--fill-0, white)"/>
</svg>
