<svg preserveAspectRatio="none" width="100%" height="100%" overflow="visible" style="display: block;" viewBox="0 0 79.0432 85.0698" fill="none" xmlns="http://www.w3.org/2000/svg">
<path id="bandeau-plus" d="M78.9629 38.2798L77.6129 46.21C77.2229 48.49 75.2529 50.1499 72.9429 50.1499H4.7429C1.7929 50.1499 -0.437086 47.4898 0.072914 44.5898L1.46293 36.6599C1.86293 34.3899 3.83291 32.74 6.13291 32.74H74.3029C77.2429 32.74 79.4729 35.3798 78.9729 38.2798H78.9629ZM54.9429 5.5498L41.8229 81.1399C41.4329 83.4099 39.4529 85.0698 37.1529 85.0698H28.4829C25.5429 85.0698 23.3129 82.4198 23.8129 79.5198L36.9329 3.92993C37.3229 1.65993 39.3029 0 41.6029 0H50.2729C53.2129 0 55.4429 2.6498 54.9429 5.5498Z" fill="var(--fill-0, white)"/>
</svg>
