<svg preserveAspectRatio="none" width="100%" height="100%" overflow="visible" style="display: block;" viewBox="0 0 921.09 983.37" fill="none" xmlns="http://www.w3.org/2000/svg">
<g id="contact-decor-bg" opacity="0.25">
<path d="M268.8 437.1L352.38 369.82L327.71 422.67L268.8 437.1Z" fill="#CD776F"/>
<path d="M614.8 89.3604L522.16 77.5703L590.94 0L614.8 89.3604Z" fill="#6476A4"/>
<path d="M109.28 400.91L0 524.16L152.12 557.25L109.28 400.91Z" fill="#34457E"/>
<path d="M469.21 182.59L419.59 198.46L442.29 281.3L469.21 182.59Z" fill="var(--fill-0, #D7948E)"/>
<path d="M424.24 477.39L555.61 717.9L281.5 709.95L424.24 477.39Z" fill="#6476A4"/>
<path d="M502.35 359.05L566.9 478.61L424.24 477.39L502.35 359.05Z" fill="#34457E"/>
<path d="M572.3 238.77L645.36 123.54L507.32 117.39L572.3 238.77Z" fill="#34457E"/>
<path d="M775 609.28L843.82 488.31L710.01 487.9L775 609.28Z" fill="#6476A4"/>
<path d="M630.49 602.24L566.9 478.61L704.95 484.76L769.93 606.14L630.49 602.24Z" fill="#CC685F"/>
<path d="M690.27 721.96L630.49 602.24L555.61 717.9L622.57 843.63L690.27 721.96Z" fill="#34457E"/>
<path d="M769.93 606.14L690.27 721.96L847.14 730.43L769.93 606.14Z" fill="#6476A4"/>
<path d="M704.95 484.76L776.3 362.23L708.09 243.52L639.53 361.55L704.95 484.76Z" fill="var(--fill-0, #D7948E)"/>
<path d="M502.35 359.05L572.3 238.77L708.09 243.52L639.53 361.55L502.35 359.05Z" fill="#CD776F"/>
<path d="M645.36 123.54L708.09 243.52L572.3 238.77L645.36 123.54Z" fill="#4C5E92"/>
<path d="M776.3 362.23L708.09 243.52L847.53 247.42L776.3 362.23Z" fill="#6476A4"/>
<path d="M838.76 485.16L911.12 371.05L771.25 365.33L704.95 484.76L838.76 485.16Z" fill="#001C59"/>
<path d="M622.38 841.43L470.53 845.69L410.64 713.69L555.29 716.67L622.38 841.43Z" fill="#001C59"/>
<path d="M690.27 721.96L622.57 843.63L764.11 844.15L690.27 721.96Z" fill="#CC685F"/>
<path d="M769.93 606.14L630.49 602.24L690.27 721.96L769.93 606.14Z" fill="#4C5E92"/>
<path d="M769.93 606.14L838.76 485.16L921.09 631.34L769.93 606.14Z" fill="#34457E"/>
<path d="M847.14 730.43L921.09 631.34L769.93 606.14L847.14 730.43Z" fill="#D78C7D"/>
<path d="M555.61 717.9L630.49 602.24L566.9 478.61L485.58 599.62L555.61 717.9Z" fill="#4C5E92"/>
<path d="M424.24 477.39L485.58 599.62L566.9 478.61L424.24 477.39Z" fill="#CC685F"/>
<path d="M288.88 474.46L354.83 591.77L424.24 477.39L288.88 474.46Z" fill="#34457E"/>
<path d="M502.35 359.05L566.9 478.61L639.53 361.55L502.35 359.05Z" fill="#4C5E92"/>
<path d="M704.95 484.76L566.9 478.61L639.53 361.55L704.95 484.76Z" fill="#34457E"/>
<path d="M622.57 843.63L699.55 983.37L764.11 844.15L622.57 843.63Z" fill="#34457E"/>
<path d="M764.11 844.15L690.27 721.96L847.14 730.43L764.11 844.15Z" fill="var(--fill-0, #D7948E)"/>
</g>
</svg>
