<svg preserveAspectRatio="none" width="100%" height="100%" overflow="visible" style="display: block;" viewBox="0 0 345.55 651.81" fill="none" xmlns="http://www.w3.org/2000/svg">
<g id="accompagnement-main-decor">
<g id="forme-gauche">
<path d="M92.78 570.29L141.01 651.81L97.95 623.58L92.78 570.29Z" fill="#CD776F"/>
<path d="M345.55 151.08L321.69 219.02L317.06 180.15L345.55 151.08Z" fill="#CD776F"/>
<path d="M271.29 471.78L328.28 445.73L316.51 514.3L271.29 471.78Z" fill="#6476A4"/>
<path d="M127.47 535.08L147.26 526.04L143.17 549.84L127.47 535.08Z" fill="#6476A4"/>
<path d="M321.32 367.11L344 340.51L301.75 301.31L321.32 367.11Z" fill="#D7948E"/>
<path d="M242.66 183.11L82.66 92.44L241.77 0L242.66 183.11Z" fill="#6476A4"/>
<path d="M240 278.22L160.88 232.89L242.66 183.11L240 278.22Z" fill="var(--fill-0, #34457E)"/>
<path d="M242.66 371.55L241.77 463.11L322.66 417.77L242.66 371.55Z" fill="var(--fill-0, #34457E)"/>
<path d="M80.88 184.89L160.88 232.89L80 278.22L0 232L80.88 184.89Z" fill="#CC685F"/>
<path d="M80 278.22L82.66 373.33L163.55 416.89L160.88 325.33L80 278.22Z" fill="#D7948E"/>
<path d="M240 278.22L242.66 371.55L163.55 416.89L160.88 325.33L240 278.22Z" fill="#CD776F"/>
<path d="M241.77 463.11L163.55 416.89L242.66 371.55L241.77 463.11Z" fill="#4C5E92"/>
<path d="M82.66 373.33L163.55 416.89L82.66 464L82.66 373.33Z" fill="#6476A4"/>
<path d="M82.66 92.44L80.88 184.89L160.88 232.89L164.44 135.11L82.66 92.44Z" fill="#4C5E92"/>
<path d="M242.66 183.11L164.44 135.11L160.88 232.89L242.66 183.11Z" fill="#CC685F"/>
<path d="M320.88 136.89L241.77 93.3301L242.66 183.11L320.88 136.89Z" fill="var(--fill-0, #34457E)"/>
<path d="M240 278.22L160.88 232.89V325.33L240 278.22Z" fill="#4C5E92"/>
<path d="M80 278.22L160.88 232.89V325.33L80 278.22Z" fill="var(--fill-0, #34457E)"/>
</g>
</g>
</svg>
