<svg preserveAspectRatio="none" width="100%" height="100%" overflow="visible" style="display: block;" viewBox="0 0 440.78 567.26" fill="none" xmlns="http://www.w3.org/2000/svg">
<g id="Forme-over-image" filter="url(#filter0_d_0_5)">
<path d="M120.36 221.55L271 36.64L35.04 0L120.36 221.55Z" fill="#6476A4"/>
<path d="M168.46 335.15L242.71 243.11L120.36 221.55L168.46 335.15Z" fill="var(--fill-0, #34457E)"/>
<path d="M209.28 449.12L253.55 559.26L134.38 542.64L209.28 449.12Z" fill="var(--fill-0, #34457E)"/>
<path d="M316.77 147.44L242.71 243.11L361.88 259.73L436.78 166.21L316.77 147.44Z" fill="#CC685F"/>
<path d="M361.88 259.73L403.53 375.85L326.3 466.57L286.33 354.75L361.88 259.73Z" fill="#D7948E"/>
<path d="M168.46 335.15L209.28 449.12L326.3 466.57L286.33 354.75L168.46 335.15Z" fill="#CD776F"/>
<path d="M253.55 559.26L326.3 466.57L209.28 449.12L253.55 559.26Z" fill="#4C5E92"/>
<path d="M436.78 166.21L316.77 147.44L386.95 54.52L436.78 166.21Z" fill="#4C5E92"/>
<path d="M271 36.64L316.77 147.44L242.71 243.11L192.28 126.71L271 36.64Z" fill="#4C5E92"/>
<path d="M120.36 221.55L192.28 126.71L242.71 243.11L120.36 221.55Z" fill="#CC685F"/>
<path d="M4 202.6L79.0801 112.71L120.36 221.55L4 202.6Z" fill="var(--fill-0, #34457E)"/>
<path d="M168.46 335.15L242.71 243.11L286.33 354.75L168.46 335.15Z" fill="#4C5E92"/>
<path d="M361.88 259.73L242.71 243.11L286.33 354.75L361.88 259.73Z" fill="var(--fill-0, #34457E)"/>
<path d="M252.764 558.645L135.32 542.266L209.135 450.1L252.764 558.645ZM325.375 466.938L253.69 558.27L210.069 449.742L325.375 466.938ZM285.958 355.194L325.548 465.951L209.649 448.67L169.218 335.783L285.958 355.194ZM402.962 375.746L326.479 465.587L286.894 354.844L361.712 260.744L402.962 375.746ZM285.543 354.112L169.387 334.797L242.558 244.095L285.543 354.112ZM360.942 260.104L286.479 353.759L243.486 243.723L360.942 260.104ZM241.789 243.455L168.595 334.186L121.178 222.201L241.789 243.455ZM435.85 166.57L361.667 259.195L243.633 242.733L316.637 148.428L316.642 148.439L316.987 147.98L435.85 166.57ZM241.881 242.455L121.286 221.205L194.003 131.945L241.881 242.455ZM316.196 147.363L242.832 242.134L194.715 131.071L270.857 37.6055L316.196 147.363ZM119.58 220.916L4.94531 202.247L78.4844 114.202L119.58 220.916ZM270.024 36.9941L191.903 126.381L191.882 126.408L120.507 220.528L79.5479 112.533L79.2441 111.733L78.8066 112.257L35.8174 0.625977L270.024 36.9941ZM193.555 130.911L138.12 198.958L192.161 127.694L193.555 130.911ZM435.948 165.573L317.672 147.075L386.838 55.4971L435.948 165.573ZM194.267 130.037L192.864 126.801L252.377 58.707L194.267 130.037Z" stroke="var(--stroke-0, black)"/>
</g>
<defs>
<filter id="filter0_d_0_5" x="0" y="0" width="440.78" height="567.26" filterUnits="userSpaceOnUse" color-interpolation-filters="sRGB">
<feFlood flood-opacity="0" result="BackgroundImageFix"/>
<feColorMatrix in="SourceAlpha" type="matrix" values="0 0 0 0 0 0 0 0 0 0 0 0 0 0 0 0 0 0 127 0" result="hardAlpha"/>
<feOffset dy="4"/>
<feGaussianBlur stdDeviation="2"/>
<feComposite in2="hardAlpha" operator="out"/>
<feColorMatrix type="matrix" values="0 0 0 0 0 0 0 0 0 0 0 0 0 0 0 0 0 0 0.25 0"/>
<feBlend mode="normal" in2="BackgroundImageFix" result="effect1_dropShadow_0_5"/>
<feBlend mode="normal" in="SourceGraphic" in2="effect1_dropShadow_0_5" result="shape"/>
</filter>
</defs>
</svg>
