<svg preserveAspectRatio="none" width="100%" height="100%" overflow="visible" style="display: block;" viewBox="0 0 152.115 227.77" fill="none" xmlns="http://www.w3.org/2000/svg">
<g id="icone-idees">
<path fill-rule="evenodd" clip-rule="evenodd" d="M76.0652 186.425H60.6452C55.0152 186.425 55.8452 186.665 54.5952 181.915C46.4152 151.275 27.7952 139.455 13.0952 116.895C0.345214 97.2949 -2.4948 72.5948 5.3252 50.5648C16.2352 20.0448 43.7452 0.985 76.0552 0.985C108.365 0.985 135.875 20.0448 146.785 50.5648C154.615 72.5948 151.765 97.2949 139.015 116.895C124.315 139.455 105.695 151.275 97.5152 181.915C96.2652 186.665 97.1052 186.425 91.4652 186.425H76.0452H76.0652ZM91.5952 180.245C96.0952 163.385 103.685 151.325 114.595 138.025C121.235 129.945 128.115 122.285 133.805 113.505C145.485 95.575 148.155 72.8249 140.975 52.6349C130.955 24.5449 105.755 7.14491 76.0552 7.14491C46.3552 7.14491 21.1552 24.5449 11.1352 52.6349C3.96519 72.8249 6.56521 95.565 18.3052 113.505C23.9952 122.295 30.8752 129.955 37.5152 138.025C48.4252 151.325 56.0152 163.385 60.5152 180.245H91.5952Z" fill="var(--fill-0, white)"/>
<path fill-rule="evenodd" clip-rule="evenodd" d="M72.6853 143.195V181.795H68.4752V143.195C66.0452 143.195 63.3752 143.375 61.0052 143.015C53.0052 142.005 49.5652 134.405 53.0552 127.695C54.7752 124.485 57.7452 122.525 60.8252 121.995C62.5452 121.695 64.2652 121.875 65.9252 122.415C69.8952 123.835 71.8552 127.165 72.4452 130.905C72.9152 133.335 72.6853 136.425 72.6853 138.975H79.3852C79.4452 136.425 79.2053 133.335 79.6253 130.905C80.2753 127.165 82.2352 123.835 86.2052 122.415C87.8652 121.885 89.5852 121.705 91.3052 121.995C94.3852 122.525 97.3552 124.485 99.0152 127.695C102.575 134.405 99.1353 142.005 91.1253 143.015C88.6953 143.375 86.0853 143.195 83.6553 143.195V181.795H79.3852V143.195H72.6853ZM85.1952 128.175C85.8452 127.285 86.6753 126.695 87.6253 126.395C88.5753 126.035 89.5852 125.975 90.5852 126.155C92.4852 126.455 94.2652 127.705 95.3252 129.655C97.5152 133.815 95.6252 138.265 90.5852 138.915C88.5752 139.155 85.6652 138.975 83.6452 138.855V137.255C83.6452 134.405 83.3453 130.485 85.1853 128.165L85.1952 128.175ZM66.9353 128.175C66.2853 127.285 65.4552 126.695 64.5052 126.395C63.5552 126.035 62.5452 125.975 61.5452 126.155C59.6452 126.455 57.8652 127.705 56.8052 129.655C54.6052 133.815 56.5052 138.265 61.5452 138.915C63.5552 139.155 66.4652 138.975 68.4852 138.855V137.255C68.4852 134.405 68.7852 130.485 66.9452 128.165L66.9353 128.175Z" fill="var(--fill-0, white)"/>
<path d="M92.2152 207.475H61.0552C57.8252 207.475 55.1952 204.845 55.1952 201.615C55.1952 198.385 57.8252 195.755 61.0552 195.755H92.2152C95.4452 195.755 98.0752 198.385 98.0752 201.615C98.0752 204.845 95.4452 207.475 92.2152 207.475ZM61.0552 198.555C59.3752 198.555 58.0052 199.925 58.0052 201.605C58.0052 203.285 59.3752 204.655 61.0552 204.655H92.2152C93.8952 204.655 95.2652 203.285 95.2652 201.605C95.2652 199.925 93.8952 198.555 92.2152 198.555H61.0552Z" fill="var(--fill-0, white)"/>
<path d="M90.5652 216.445H62.6952C59.4652 216.445 56.8352 213.815 56.8352 210.585C56.8352 207.355 59.4652 204.725 62.6952 204.725H90.5652C93.7952 204.725 96.4252 207.355 96.4252 210.585C96.4252 213.815 93.7952 216.445 90.5652 216.445ZM62.6952 207.535C61.0152 207.535 59.6452 208.905 59.6452 210.585C59.6452 212.265 61.0152 213.635 62.6952 213.635H90.5652C92.2452 213.635 93.6152 212.265 93.6152 210.585C93.6152 208.905 92.2452 207.535 90.5652 207.535H62.6952Z" fill="var(--fill-0, white)"/>
<path d="M92.2152 198.425H61.0552C57.8252 198.425 55.1952 195.795 55.1952 192.565C55.1952 189.335 57.8252 186.705 61.0552 186.705H92.2152C95.4452 186.705 98.0752 189.335 98.0752 192.565C98.0752 195.795 95.4452 198.425 92.2152 198.425ZM61.0552 189.515C59.3752 189.515 58.0052 190.885 58.0052 192.565C58.0052 194.245 59.3752 195.615 61.0552 195.615H92.2152C93.8952 195.615 95.2652 194.245 95.2652 192.565C95.2652 190.885 93.8952 189.515 92.2152 189.515H61.0552Z" fill="var(--fill-0, white)"/>
<path d="M76.1952 226.785C73.0452 226.785 69.9652 225.695 67.5252 223.725C65.1152 221.785 63.4152 219.055 62.7252 216.055L62.3352 214.345H90.9452L90.5552 216.055C89.8652 219.055 88.1652 221.785 85.7552 223.725C83.3052 225.695 80.2252 226.785 77.0852 226.785H76.1952ZM65.9952 217.135C67.6552 221.235 71.6352 223.975 76.1952 223.975H77.0752C81.6352 223.975 85.6152 221.235 87.2752 217.135H65.9952Z" fill="var(--fill-0, white)"/>
<path fill-rule="evenodd" clip-rule="evenodd" d="M76.0652 186.425H60.6452C55.0152 186.425 55.8452 186.665 54.5952 181.915C46.4152 151.275 27.7952 139.455 13.0952 116.895C0.345214 97.2949 -2.4948 72.5948 5.3252 50.5648C16.2352 20.0448 43.7452 0.985 76.0552 0.985C108.365 0.985 135.875 20.0448 146.785 50.5648C154.615 72.5948 151.765 97.2949 139.015 116.895C124.315 139.455 105.695 151.275 97.5152 181.915C96.2652 186.665 97.1052 186.425 91.4652 186.425H76.0452H76.0652ZM91.5952 180.245C96.0952 163.385 103.685 151.325 114.595 138.025C121.235 129.945 128.115 122.285 133.805 113.505C145.485 95.575 148.155 72.8249 140.975 52.6349C130.955 24.5449 105.755 7.14491 76.0552 7.14491C46.3552 7.14491 21.1552 24.5449 11.1352 52.6349C3.96519 72.8249 6.56521 95.565 18.3052 113.505C23.9952 122.295 30.8752 129.955 37.5152 138.025C48.4252 151.325 56.0152 163.385 60.5152 180.245H91.5952Z" stroke="var(--stroke-0, white)" stroke-width="1.97" stroke-miterlimit="10"/>
<path fill-rule="evenodd" clip-rule="evenodd" d="M72.6853 143.195V181.795H68.4752V143.195C66.0452 143.195 63.3752 143.375 61.0052 143.015C53.0052 142.005 49.5652 134.405 53.0552 127.695C54.7752 124.485 57.7452 122.525 60.8252 121.995C62.5452 121.695 64.2652 121.875 65.9252 122.415C69.8952 123.835 71.8552 127.165 72.4452 130.905C72.9152 133.335 72.6853 136.425 72.6853 138.975H79.3852C79.4452 136.425 79.2053 133.335 79.6253 130.905C80.2753 127.165 82.2352 123.835 86.2052 122.415C87.8652 121.885 89.5852 121.705 91.3052 121.995C94.3852 122.525 97.3552 124.485 99.0152 127.695C102.575 134.405 99.1353 142.005 91.1253 143.015C88.6953 143.375 86.0853 143.195 83.6553 143.195V181.795H79.3852V143.195H72.6853ZM85.1952 128.175C85.8452 127.285 86.6753 126.695 87.6253 126.395C88.5753 126.035 89.5852 125.975 90.5852 126.155C92.4852 126.455 94.2652 127.705 95.3252 129.655C97.5152 133.815 95.6252 138.265 90.5852 138.915C88.5752 139.155 85.6652 138.975 83.6452 138.855V137.255C83.6452 134.405 83.3453 130.485 85.1853 128.165L85.1952 128.175ZM66.9353 128.175C66.2853 127.285 65.4552 126.695 64.5052 126.395C63.5552 126.035 62.5452 125.975 61.5452 126.155C59.6452 126.455 57.8652 127.705 56.8052 129.655C54.6052 133.815 56.5052 138.265 61.5452 138.915C63.5552 139.155 66.4652 138.975 68.4852 138.855V137.255C68.4852 134.405 68.7852 130.485 66.9452 128.165L66.9353 128.175Z" stroke="var(--stroke-0, white)" stroke-width="1.97" stroke-miterlimit="10"/>
<path d="M92.2152 207.475H61.0552C57.8252 207.475 55.1952 204.845 55.1952 201.615C55.1952 198.385 57.8252 195.755 61.0552 195.755H92.2152C95.4452 195.755 98.0752 198.385 98.0752 201.615C98.0752 204.845 95.4452 207.475 92.2152 207.475ZM61.0552 198.555C59.3752 198.555 58.0052 199.925 58.0052 201.605C58.0052 203.285 59.3752 204.655 61.0552 204.655H92.2152C93.8952 204.655 95.2652 203.285 95.2652 201.605C95.2652 199.925 93.8952 198.555 92.2152 198.555H61.0552Z" stroke="var(--stroke-0, white)" stroke-width="1.97" stroke-miterlimit="10"/>
<path d="M90.5652 216.445H62.6952C59.4652 216.445 56.8352 213.815 56.8352 210.585C56.8352 207.355 59.4652 204.725 62.6952 204.725H90.5652C93.7952 204.725 96.4252 207.355 96.4252 210.585C96.4252 213.815 93.7952 216.445 90.5652 216.445ZM62.6952 207.535C61.0152 207.535 59.6452 208.905 59.6452 210.585C59.6452 212.265 61.0152 213.635 62.6952 213.635H90.5652C92.2452 213.635 93.6152 212.265 93.6152 210.585C93.6152 208.905 92.2452 207.535 90.5652 207.535H62.6952Z" stroke="var(--stroke-0, white)" stroke-width="1.97" stroke-miterlimit="10"/>
<path d="M92.2152 198.425H61.0552C57.8252 198.425 55.1952 195.795 55.1952 192.565C55.1952 189.335 57.8252 186.705 61.0552 186.705H92.2152C95.4452 186.705 98.0752 189.335 98.0752 192.565C98.0752 195.795 95.4452 198.425 92.2152 198.425ZM61.0552 189.515C59.3752 189.515 58.0052 190.885 58.0052 192.565C58.0052 194.245 59.3752 195.615 61.0552 195.615H92.2152C93.8952 195.615 95.2652 194.245 95.2652 192.565C95.2652 190.885 93.8952 189.515 92.2152 189.515H61.0552Z" stroke="var(--stroke-0, white)" stroke-width="1.97" stroke-miterlimit="10"/>
<path d="M76.1952 226.785C73.0452 226.785 69.9652 225.695 67.5252 223.725C65.1152 221.785 63.4152 219.055 62.7252 216.055L62.3352 214.345H90.9452L90.5552 216.055C89.8652 219.055 88.1652 221.785 85.7552 223.725C83.3052 225.695 80.2252 226.785 77.0852 226.785H76.1952ZM65.9952 217.135C67.6552 221.235 71.6352 223.975 76.1952 223.975H77.0752C81.6352 223.975 85.6152 221.235 87.2752 217.135H65.9952Z" stroke="var(--stroke-0, white)" stroke-width="1.97" stroke-miterlimit="10"/>
</g>
</svg>
