<svg preserveAspectRatio="none" width="100%" height="100%" overflow="visible" style="display: block;" viewBox="0 0 196.12 261.47" fill="none" xmlns="http://www.w3.org/2000/svg">
<g id="icone-aventure">
<path d="M48.05 199.24L56.2101 186.58L25.9401 154.12L48.05 199.24Z" fill="#6476A4"/>
<path d="M31.42 106.04L0 51.3201L0.560059 95.8801L31.42 106.04Z" fill="var(--fill-0, #CD776F)"/>
<path d="M31.42 106.04L56.2101 186.58L25.9401 154.12L31.42 106.04Z" fill="var(--fill-0, #CD776F)"/>
<path d="M48.05 199.24L75.6001 205.87L56.2101 186.58L48.05 199.24Z" fill="#4F5F93"/>
<path d="M45.8501 222.81L47.87 255.08L68.76 245.29L45.8501 222.81Z" fill="#C0554B"/>
<path d="M41.9 33.3901L110.8 3.13013L96.79 83.8401L41.9 33.3901Z" fill="#6476A4"/>
<path d="M67.3101 0L110.8 3.13013L41.9 33.3901L67.3101 0Z" fill="#4F5F93"/>
<path d="M26.13 15.8601L67.3101 0L41.9 33.3901L26.13 15.8601Z" fill="#6476A4"/>
<path d="M0 51.3201L26.13 15.8601L41.9 33.3901L0 51.3201Z" fill="#4C5E92"/>
<path d="M41.9 33.3901L31.42 106.04L0 51.3201L41.9 33.3901Z" fill="#34457E"/>
<path d="M96.79 83.8401L41.9 33.3901L31.42 106.04L96.79 83.8401Z" fill="#4C5E92"/>
<path d="M25.9401 154.12L31.42 106.04L0.560059 95.8801L25.9401 154.12Z" fill="#D7948E"/>
<path d="M84.5601 154.27L96.79 83.8401L31.42 106.04L84.5601 154.27Z" fill="#34457E"/>
<path d="M56.2101 186.58L84.5601 154.27L31.42 106.04L56.2101 186.58Z" fill="#D7948E"/>
<path d="M84.5601 154.27L75.6001 205.87L56.2101 186.58L84.5601 154.27Z" fill="var(--fill-0, #CD776F)"/>
<path d="M48.05 199.24L53.4901 224.65L57.37 225.32L51.4 200.06L48.05 199.24Z" fill="#34457E"/>
<path d="M84.5601 154.26L75.6101 205.87L99.75 194.14L84.5601 154.26Z" fill="var(--fill-0, #CD776F)"/>
<path d="M84.5601 154.26L96.79 83.8301L149.2 126.48L84.5601 154.26Z" fill="#6476A4"/>
<path d="M103.01 208.78L99.75 194.14L138.22 173.61L103.01 208.78Z" fill="#6476A4"/>
<path d="M149.2 126.48L196.12 85.3501L180.8 127.15L149.2 126.48Z" fill="var(--fill-0, #CD776F)"/>
<path d="M149.2 126.48L99.75 194.14L138.22 173.61L149.2 126.48Z" fill="var(--fill-0, #CD776F)"/>
<path d="M103.01 208.78L75.6101 205.87L99.75 194.14L103.01 208.78Z" fill="#4F5F93"/>
<path d="M97.1901 231.72L84.62 261.47L68.76 245.3L97.1901 231.72Z" fill="#C0554B"/>
<path d="M163.76 54.52L110.81 3.1001L96.79 83.8301L163.76 54.52Z" fill="#34457E"/>
<path d="M151.61 14.6101L110.81 3.1001L163.76 54.52L151.61 14.6101Z" fill="#4F5F93"/>
<path d="M184.01 43.24L151.61 14.6101L163.76 54.52L184.01 43.24Z" fill="#6476A4"/>
<path d="M196.12 85.3501L184.01 43.24L163.76 54.52L196.12 85.3501Z" fill="#4C5E92"/>
<path d="M163.76 54.52L149.2 126.48L196.12 85.3501L163.76 54.52Z" fill="#34457E"/>
<path d="M96.79 83.8301L163.76 54.52L149.2 126.48L96.79 83.8301Z" fill="#4C5E92"/>
<path d="M138.22 173.61L149.2 126.48L180.8 127.15L138.22 173.61Z" fill="#D7948E"/>
<path d="M99.75 194.14L84.5601 154.26L149.2 126.48L99.75 194.14Z" fill="#D7948E"/>
<path d="M103.01 208.78L89.5901 230.92L85.8201 230.27L99.67 208.44L103.01 208.78Z" fill="#34457E"/>
<path d="M97.1901 231.72L45.8501 222.78L68.76 245.3L97.1901 231.72Z" fill="var(--fill-0, #CD776F)"/>
<path d="M84.62 261.47L68.76 245.3L47.87 255.05L84.62 261.47Z" fill="var(--fill-0, #CD776F)"/>
</g>
</svg>
