<svg preserveAspectRatio="none" width="100%" height="100%" overflow="visible" style="display: block;" viewBox="0 0 400.7 178.61" fill="none" xmlns="http://www.w3.org/2000/svg">
<g id="embedded-header">
<g id="logo-embedded">
<path d="M45.41 0L74.68 1.96997L28.24 23.1902L45.41 0Z" fill="#4F5F93"/>
<path d="M17.66 11.1401L45.41 0L28.24 23.1902L17.66 11.1401Z" fill="#6476A4"/>
<path d="M0 35.77L17.66 11.1401L28.24 23.1902L0 35.77Z" fill="#4C5E92"/>
<path d="M66.5 168.36H60.99L61.26 166.64H65.87C66.71 166.64 67.5 166.49 68.23 166.19C68.96 165.89 69.56 165.45 70.04 164.86C70.52 164.28 70.83 163.54 70.95 162.64C71.08 161.78 71 161.07 70.71 160.53C70.43 159.98 69.99 159.58 69.39 159.33C68.8 159.07 68.1 158.94 67.29 158.92H63.12L59.69 178.6H57.72L61.43 157.15H67.32C68.19 157.17 69 157.29 69.73 157.53C70.46 157.76 71.08 158.1 71.59 158.55C72.1 159 72.48 159.57 72.73 160.27C72.98 160.96 73.06 161.78 72.96 162.71C72.86 163.68 72.56 164.52 72.06 165.22C71.56 165.92 70.93 166.48 70.16 166.91C69.39 167.33 68.55 167.62 67.64 167.78L66.49 168.37L66.5 168.36ZM64.61 178.59H58.45L59.81 176.85H64.69C65.59 176.85 66.42 176.67 67.16 176.32C67.91 175.97 68.52 175.46 69.01 174.81C69.5 174.16 69.8 173.37 69.93 172.45C70.04 171.64 69.97 170.94 69.73 170.34C69.49 169.74 69.1 169.26 68.55 168.92C68 168.58 67.32 168.39 66.51 168.36H62.83L63.15 166.64H68L68.28 167.27C69.13 167.42 69.85 167.74 70.42 168.24C70.99 168.74 71.4 169.36 71.65 170.09C71.9 170.82 71.99 171.6 71.91 172.42C71.77 173.74 71.37 174.85 70.69 175.76C70.02 176.67 69.16 177.37 68.1 177.86C67.05 178.35 65.89 178.59 64.61 178.59Z" fill="#CC685F"/>
<path d="M90.45 156.84H92.44L89.94 171.54C89.71 172.94 89.24 174.18 88.51 175.26C87.78 176.34 86.8501 177.16 85.7201 177.74C84.5901 178.32 83.29 178.6 81.82 178.59C80.43 178.57 79.26 178.26 78.31 177.66C77.37 177.06 76.68 176.23 76.26 175.18C75.84 174.12 75.71 172.91 75.88 171.55L78.4001 156.83H80.39L77.89 171.55C77.75 172.54 77.81 173.43 78.06 174.22C78.31 175.01 78.75 175.64 79.39 176.11C80.03 176.58 80.8701 176.82 81.9101 176.84C83.0201 176.87 84.0001 176.66 84.8401 176.21C85.6801 175.76 86.37 175.14 86.89 174.34C87.41 173.54 87.76 172.61 87.94 171.55L90.4601 156.83L90.45 156.84Z" fill="#CC685F"/>
<path d="M97.07 157.15H103.4C104.66 157.18 105.75 157.44 106.67 157.94C107.59 158.44 108.28 159.15 108.73 160.07C109.18 160.99 109.33 162.11 109.19 163.41C109.08 164.48 108.78 165.41 108.28 166.21C107.78 167.01 107.14 167.67 106.36 168.21C105.58 168.75 104.7 169.17 103.72 169.47L103.04 169.72H96.26L96.54 168H101.8C102.72 168 103.57 167.8 104.33 167.42C105.1 167.04 105.74 166.51 106.25 165.83C106.77 165.15 107.09 164.34 107.21 163.42C107.34 162.51 107.26 161.72 106.99 161.06C106.71 160.4 106.27 159.88 105.64 159.51C105.02 159.14 104.25 158.95 103.33 158.93H98.73L95.33 178.61H93.34L97.05 157.16L97.07 157.15ZM105.38 178.59L102.04 168.96H104.03L107.52 178.4V178.59H105.38Z" fill="#CC685F"/>
<path d="M116.74 157.15L113 178.6H111.03L114.74 157.15H116.74ZM123.72 176.84L123.4 178.59H112.48L112.77 176.84H123.72ZM124.09 166.68L123.8 168.4H114.25L114.56 166.68H124.09ZM127.02 157.15L126.73 158.9H115.9L116.19 157.15H127.02Z" fill="#CC685F"/>
<path d="M137.21 158.69L127.06 178.59H124.92L136.1 157.14H137.56L137.21 158.69ZM140.11 170.93L139.8 172.67H129.1L129.41 170.93H140.11ZM139.78 178.59L136.47 158.51L136.62 157.14H137.95L141.74 178.59H139.78Z" fill="#CC685F"/>
<path d="M159.94 156.84H161.93L159.43 171.54C159.2 172.94 158.73 174.18 158 175.26C157.27 176.34 156.34 177.16 155.21 177.74C154.08 178.32 152.78 178.6 151.31 178.59C149.92 178.57 148.75 178.26 147.8 177.66C146.86 177.06 146.17 176.23 145.75 175.18C145.33 174.12 145.2 172.91 145.37 171.55L147.89 156.83H149.88L147.38 171.55C147.24 172.54 147.3 173.43 147.55 174.22C147.8 175.01 148.24 175.64 148.88 176.11C149.52 176.58 150.36 176.82 151.4 176.84C152.51 176.87 153.49 176.66 154.33 176.21C155.17 175.76 155.86 175.14 156.38 174.34C156.9 173.54 157.25 172.61 157.43 171.55L159.95 156.83L159.94 156.84Z" fill="#CC685F"/>
<path d="M175.71 157.15L171.97 178.6H170L173.71 157.15H175.71ZM175.51 178.59H171L171.34 176.84H175.55C177.07 176.85 178.4 176.51 179.53 175.82C180.66 175.13 181.58 174.21 182.29 173.04C183 171.88 183.47 170.58 183.7 169.14L184.08 166.55C184.23 165.61 184.25 164.68 184.15 163.78C184.05 162.88 183.8 162.06 183.41 161.34C183.02 160.62 182.46 160.04 181.75 159.6C181.04 159.16 180.15 158.93 179.08 158.9H174.32L174.63 157.13H179.11C180.46 157.16 181.6 157.43 182.55 157.95C183.5 158.47 184.26 159.17 184.84 160.05C185.42 160.93 185.81 161.93 186.01 163.06C186.21 164.18 186.23 165.36 186.08 166.59L185.68 169.14C185.47 170.48 185.09 171.72 184.53 172.87C183.97 174.02 183.26 175.02 182.39 175.88C181.52 176.73 180.51 177.4 179.35 177.87C178.19 178.34 176.91 178.58 175.51 178.59Z" fill="#CC685F"/>
<path d="M193.84 155.66L193.55 157.4C193.45 158.04 193.27 158.65 193.02 159.25C192.76 159.84 192.44 160.4 192.06 160.91C191.67 161.42 191.24 161.89 190.76 162.32L189.67 161.42C190.15 160.82 190.56 160.2 190.9 159.55C191.24 158.9 191.48 158.2 191.63 157.44L191.94 155.66H193.86H193.84Z" fill="#CC685F"/>
<path d="M199.41 157.15L195.67 178.6H193.7L197.41 157.15H199.41ZM206.39 176.84L206.07 178.59H195.15L195.44 176.84H206.39ZM206.76 166.68L206.47 168.4H196.92L197.23 166.68H206.76ZM209.69 157.15L209.4 158.9H198.57L198.86 157.15H209.69ZM202.49 155.41L205.88 151.24H208.37L204.29 155.41H202.49Z" fill="#CC685F"/>
<path d="M227.15 157.15L226.86 158.9H211.64L211.93 157.15H227.15ZM220.55 157.15L216.81 178.6H214.85L218.58 157.15H220.55Z" fill="#CC685F"/>
<path d="M242.15 156.84H244.14L241.64 171.54C241.41 172.94 240.94 174.18 240.21 175.26C239.48 176.34 238.55 177.16 237.42 177.74C236.29 178.32 234.99 178.6 233.52 178.59C232.13 178.57 230.96 178.26 230.01 177.66C229.07 177.06 228.38 176.23 227.96 175.18C227.54 174.12 227.41 172.91 227.58 171.55L230.1 156.83H232.09L229.59 171.55C229.45 172.54 229.51 173.43 229.76 174.22C230.01 175.01 230.45 175.64 231.09 176.11C231.73 176.58 232.57 176.82 233.61 176.84C234.72 176.87 235.7 176.66 236.54 176.21C237.38 175.76 238.07 175.14 238.59 174.34C239.11 173.54 239.46 172.61 239.64 171.55L242.16 156.83L242.15 156.84Z" fill="#CC685F"/>
<path d="M250.78 157.15L247.04 178.6H245.07L248.78 157.15H250.78ZM250.59 178.59H246.08L246.42 176.84H250.63C252.15 176.85 253.48 176.51 254.61 175.82C255.74 175.13 256.66 174.21 257.37 173.04C258.08 171.88 258.55 170.58 258.78 169.14L259.16 166.55C259.31 165.61 259.33 164.68 259.23 163.78C259.13 162.88 258.88 162.06 258.49 161.34C258.1 160.62 257.54 160.04 256.83 159.6C256.12 159.16 255.23 158.93 254.16 158.9H249.4L249.71 157.13H254.19C255.54 157.16 256.68 157.43 257.63 157.95C258.58 158.47 259.34 159.17 259.92 160.05C260.5 160.93 260.89 161.93 261.09 163.06C261.29 164.18 261.31 165.36 261.16 166.59L260.76 169.14C260.55 170.48 260.17 171.72 259.61 172.87C259.05 174.02 258.34 175.02 257.47 175.88C256.6 176.73 255.59 177.4 254.43 177.87C253.27 178.34 251.99 178.58 250.59 178.59Z" fill="#CC685F"/>
<path d="M269.16 157.15L265.42 178.6H263.45L267.16 157.15H269.16ZM276.15 176.84L275.83 178.59H264.91L265.2 176.84H276.15ZM276.52 166.68L276.23 168.4H266.68L266.99 166.68H276.52ZM279.45 157.15L279.16 158.9H268.33L268.62 157.15H279.45Z" fill="#CC685F"/>
<path d="M108.4 41.26H91.26L88.67 56.1602H108.97L107.31 65.5801H75.97L85.7 9.38013H117L115.34 18.8401H95.15L92.83 32.1201H110.01L108.39 41.27L108.4 41.26Z" fill="#001C59"/>
<path d="M130.63 23.77L129.94 27.71C132.82 24.49 136.1 22.94 139.78 23.04C143.77 23.14 146.37 25.0202 147.58 28.6802C150.74 24.8202 154.27 22.93 158.16 23.01C161.09 23.06 163.34 24.1601 164.9 26.3101C166.46 28.4601 167.22 31.51 167.2 35.48L167.01 39.03L162.61 65.5901H151.92L156.36 38.96L156.55 36.8C156.76 33.71 155.73 32.1702 153.46 32.1702C151.63 32.1702 149.96 33.4202 148.44 35.9102L148.21 37.76L143.39 65.5901H132.74L137.14 39.03L137.37 36.8701C137.58 33.7301 136.56 32.1602 134.32 32.1602C133.24 32.1602 132.32 32.4601 131.56 33.0701C130.8 33.6701 130.1 34.39 129.46 35.21L124.17 65.5901H113.52L120.78 23.8301L130.66 23.79L130.63 23.77Z" fill="#001C59"/>
<path d="M189.99 65.5601C186.44 65.4101 183.76 63.73 181.96 60.54L180.61 64.75H170.69L181 5.45996H191.65L187.6 26.4202C190.02 23.5402 192.76 22.1202 195.82 22.1702C199.47 22.2202 202.19 23.59 203.98 26.26C205.77 28.94 206.57 32.8202 206.39 37.9202C206.18 43.8602 205.43 48.99 204.13 53.3C202.83 57.61 200.98 60.76 198.59 62.76C196.2 64.75 193.33 65.6901 189.98 65.5601H189.99ZM195.9 38.05C195.98 35.65 195.69 33.9502 195.05 32.9502C194.41 31.9502 193.39 31.4201 192 31.3701C190.02 31.2901 188.23 32.32 186.63 34.46L183.31 53.6301C184.08 55.4901 185.54 56.4701 187.67 56.5701C191.66 56.7801 194.04 53.9501 194.81 48.1001L195.16 45.24L195.89 38.05H195.9Z" fill="#001C59"/>
<path d="M226.27 65.5701C222.9 65.5401 220.04 64.7202 217.68 63.1002C215.33 61.4802 213.63 59.2101 212.59 56.2901C211.55 53.3701 211.23 50.0401 211.64 46.3101L211.99 43.4503C212.84 36.5303 214.94 31.2301 218.3 27.5701C221.66 23.9001 225.94 22.1301 231.13 22.2601C234.94 22.3601 237.93 23.5502 240.1 25.8302C242.27 28.1102 243.54 31.2902 243.9 35.3802C244.11 37.8202 244.05 40.2201 243.75 42.5601L243.02 47.5802H222.18C222.05 48.6902 222.01 49.7501 222.06 50.7801C222.24 54.4901 224.05 56.3803 227.5 56.4503C230.72 56.5503 233.83 55.3301 236.84 52.7801L240.43 59.4202C239.01 61.3502 237.04 62.8701 234.51 63.9701C231.98 65.0801 229.23 65.6001 226.27 65.5501V65.5701ZM230.09 31.2601C227.03 31.1301 224.89 33.0902 223.68 37.1302L222.91 39.9503L233.52 39.9901C233.78 38.5001 233.92 37.2902 233.94 36.3602C234.04 33.0902 232.76 31.3901 230.08 31.2701L230.09 31.2601Z" fill="#001C59"/>
<path d="M264.68 22.1501C267.74 22.2501 270.22 23.6802 272.13 26.4302L276.07 5.43018H286.8L276.53 64.72H266.96L267.54 60.47C264.86 63.87 261.92 65.5601 258.7 65.5601C255.12 65.5101 252.43 64.1302 250.61 61.4302C248.8 58.7302 247.93 54.84 248 49.77L248.12 47.3C248.71 38.81 250.39 32.46 253.16 28.25C255.93 24.04 259.77 22.0001 264.68 22.1301V22.1501ZM258.62 49.6301C258.49 51.8701 258.75 53.56 259.41 54.71C260.07 55.86 261.08 56.4302 262.44 56.4302C264.27 56.4802 266.02 55.52 267.69 53.54L271.05 34.3601C270.1 32.4001 268.72 31.3901 266.92 31.3101C263.11 31.1001 260.72 33.8601 259.74 39.5701L259.32 42.5L258.63 49.6401L258.62 49.6301Z" fill="#001C59"/>
<path d="M303.08 22.1501C306.14 22.2501 308.62 23.6802 310.53 26.4302L314.47 5.43018H325.2L314.93 64.72H305.36L305.94 60.47C303.26 63.87 300.32 65.5601 297.1 65.5601C293.52 65.5101 290.83 64.1302 289.01 61.4302C287.2 58.7302 286.33 54.84 286.4 49.77L286.52 47.3C287.11 38.81 288.79 32.46 291.56 28.25C294.33 24.04 298.17 22.0001 303.08 22.1301V22.1501ZM297.02 49.6301C296.89 51.8701 297.15 53.56 297.81 54.71C298.47 55.86 299.48 56.4302 300.84 56.4302C302.67 56.4802 304.42 55.52 306.09 53.54L309.45 34.3601C308.5 32.4001 307.12 31.3901 305.32 31.3101C301.51 31.1001 299.12 33.8601 298.14 39.5701L297.72 42.5L297.03 49.6401L297.02 49.6301Z" fill="#001C59"/>
<path d="M340.17 65.5701C336.8 65.5401 333.94 64.7202 331.58 63.1002C329.23 61.4802 327.53 59.2101 326.49 56.2901C325.45 53.3701 325.13 50.0401 325.54 46.3101L325.89 43.4503C326.74 36.5303 328.84 31.2301 332.2 27.5701C335.56 23.9001 339.84 22.1301 345.03 22.2601C348.84 22.3601 351.83 23.5502 354 25.8302C356.17 28.1102 357.44 31.2902 357.8 35.3802C358.01 37.8202 357.95 40.2201 357.65 42.5601L356.92 47.5802H336.08C335.95 48.6902 335.91 49.7501 335.96 50.7801C336.14 54.4901 337.95 56.3803 341.4 56.4503C344.62 56.5503 347.73 55.3301 350.74 52.7801L354.33 59.4202C352.91 61.3502 350.94 62.8701 348.41 63.9701C345.88 65.0801 343.13 65.6001 340.17 65.5501V65.5701ZM344 31.2601C340.94 31.1301 338.8 33.0902 337.59 37.1302L336.82 39.9503L347.43 39.9901C347.69 38.5001 347.83 37.2902 347.85 36.3602C347.95 33.0902 346.67 31.3901 343.99 31.2701L344 31.2601Z" fill="#001C59"/>
<path d="M378.58 22.1501C381.64 22.2501 384.12 23.6802 386.03 26.4302L389.97 5.43018H400.7L390.43 64.72H380.86L381.44 60.47C378.76 63.87 375.82 65.5601 372.6 65.5601C369.02 65.5101 366.33 64.1302 364.51 61.4302C362.69 58.7302 361.83 54.84 361.9 49.77L362.02 47.3C362.61 38.81 364.29 32.46 367.06 28.25C369.83 24.04 373.67 22.0001 378.58 22.1301V22.1501ZM372.52 49.6301C372.39 51.8701 372.65 53.56 373.31 54.71C373.97 55.86 374.98 56.4302 376.34 56.4302C378.17 56.4802 379.92 55.52 381.59 53.54L384.95 34.3601C384 32.4001 382.62 31.3901 380.82 31.3101C377.01 31.1001 374.62 33.8601 373.64 39.5701L373.22 42.5L372.53 49.6401L372.52 49.6301Z" fill="#001C59"/>
<path d="M75.02 135.01H63.94L73.71 78.8101H84.79L75.02 135.01Z" fill="#001C59"/>
<path d="M101 93.2101L100.23 97.4203C103.16 94.0003 106.42 92.3403 110 92.4403C112.93 92.4903 115.17 93.5901 116.7 95.7401C118.23 97.8901 118.98 100.94 118.96 104.91L118.73 108.46L114.29 135.02H103.6L108 108.39L108.19 106.11C108.29 103.1 107.16 101.59 104.79 101.59C103.68 101.59 102.74 101.89 101.97 102.5C101.2 103.1 100.48 103.82 99.81 104.64L94.52 135.02H83.79L91.05 93.2601L101.01 93.2201L101 93.2101Z" fill="#001C59"/>
<path d="M164.8 78.8101L168.08 119.22L185.33 78.8101H199.92L190.15 135.01H179.03L181.73 119.46L186.59 97.27L169.38 135.02H161.85L157.6 96L154.4 120.2L151.85 135.02H140.77L150.5 78.8201H164.78L164.8 78.8101Z" fill="#001C59"/>
<path d="M209.96 135.01H199.27L206.53 93.2501H217.22L209.96 135.01ZM207.91 82.6403C207.91 80.8603 208.47 79.4202 209.59 78.3002C210.71 77.1802 212.08 76.6202 213.7 76.6202C215.29 76.5702 216.65 77.0903 217.77 78.1803C218.89 79.2703 219.45 80.6301 219.45 82.2501C219.45 84.0501 218.89 85.5102 217.77 86.6302C216.65 87.7502 215.28 88.3102 213.66 88.3102C212.01 88.3602 210.64 87.8401 209.55 86.7501C208.46 85.6601 207.91 84.2903 207.91 82.6403Z" fill="#001C59"/>
<path d="M235.43 93.2101L234.66 97.4203C237.59 94.0003 240.85 92.3403 244.43 92.4403C247.36 92.4903 249.6 93.5901 251.13 95.7401C252.66 97.8901 253.41 100.94 253.39 104.91L253.16 108.46L248.72 135.02H238.03L242.43 108.39L242.62 106.11C242.72 103.1 241.59 101.59 239.22 101.59C238.11 101.59 237.17 101.89 236.4 102.5C235.63 103.1 234.91 103.82 234.24 104.64L228.95 135.02H218.22L225.48 93.2601L235.44 93.2201L235.43 93.2101Z" fill="#001C59"/>
<path d="M275.15 91.5901C278.21 91.6901 280.69 93.1201 282.6 95.8701L286.54 74.8701H297.27L287 134.16H277.43L278.01 129.91C275.33 133.31 272.39 135 269.17 135C265.59 134.95 262.9 133.57 261.08 130.87C259.27 128.17 258.4 124.28 258.47 119.21L258.59 116.74C259.18 108.25 260.86 101.9 263.63 97.6902C266.4 93.4802 270.24 91.4401 275.15 91.5701V91.5901ZM269.09 119.07C268.96 121.31 269.22 123 269.88 124.15C270.54 125.3 271.55 125.87 272.91 125.87C274.74 125.92 276.49 124.96 278.16 122.98L281.52 103.8C280.57 101.84 279.19 100.83 277.39 100.75C273.58 100.54 271.19 103.3 270.21 109.01L269.79 111.94L269.1 119.08L269.09 119.07Z" fill="#001C59"/>
<path d="M32.05 137.81L37.56 129.03L17.26 106.72L32.05 137.81Z" fill="#6476A4"/>
<path d="M21.04 73.46L0 35.77L0.289978 66.5701L21.04 73.46Z" fill="var(--fill-0, #CD776F)"/>
<path d="M21.04 73.46L37.56 129.03L17.26 106.72L21.04 73.46Z" fill="var(--fill-0, #CD776F)"/>
<path d="M32.05 137.81L50.58 142.27L37.56 129.03L32.05 137.81Z" fill="#4F5F93"/>
<path d="M30.52 154.11L31.81 176.41L45.9 169.55L30.52 154.11Z" fill="#C0554B"/>
<path d="M28.24 23.1902L74.68 1.96997L65.08 57.8201L28.24 23.1902Z" fill="#6476A4"/>
<path d="M28.24 23.1902L21.04 73.46L0 35.77L28.24 23.1902Z" fill="#34457E"/>
<path d="M65.08 57.8201L28.24 23.1902L21.04 73.46L65.08 57.8201Z" fill="#4C5E92"/>
<path d="M17.26 106.72L21.04 73.46L0.289978 66.5701L17.26 106.72Z" fill="#D7948E"/>
<path d="M56.71 106.56L65.08 57.8201L21.04 73.46L56.71 106.56Z" fill="#34457E"/>
<path d="M37.56 129.03L56.71 106.56L21.04 73.46L37.56 129.03Z" fill="#D7948E"/>
<path d="M56.71 106.56L50.58 142.27L37.56 129.03L56.71 106.56Z" fill="var(--fill-0, #CD776F)"/>
<path d="M32.05 137.81L35.66 155.35L38.27 155.8L34.3 138.36L32.05 137.81Z" fill="#34457E"/>
<path d="M30.52 154.11L48.05 157.12L45.9 169.55L30.52 154.11Z" fill="var(--fill-0, #CD776F)"/>
<path d="M31.81 176.41L45.9 169.55L44.36 178.59L31.81 176.41Z" fill="var(--fill-0, #CD776F)"/>
</g>
</g>
</svg>
