<svg preserveAspectRatio="none" width="100%" height="100%" overflow="visible" style="display: block;" viewBox="0 0 811.19 1062.45" fill="none" xmlns="http://www.w3.org/2000/svg">
<g id="fond-logo-contact" filter="url(#filter0_d_0_13)">
<path d="M188.3 1054.45L807.19 421.33L4.53 0L188.3 1054.45Z" fill="#001C59"/>
<path d="M605.87 661.42L740.65 725.96L535.61 768.42L605.87 661.42Z" fill="#34457E"/>
<path d="M684.3 649.47L637.9 578.57L643.56 624.28L684.3 649.47Z" fill="#CD776F"/>
<path d="M428.44 228.24L500.91 241.95L468.13 166.93L428.44 228.24Z" fill="#6476A4"/>
<path d="M246.29 196.44L271.45 201.2L342.78 120.49L246.29 196.44Z" fill="#6476A4"/>
<path d="M666.35 290.39L699.76 314.4L662.53 371.09L666.35 290.39Z" fill="#D7948E"/>
<path d="M247.22 738.2L119.69 913.05L335.13 934.93L247.22 738.2Z" fill="#6476A4"/>
<path d="M198.2 637.53L135.39 724.52L247.22 738.2L198.2 637.53Z" fill="#34457E"/>
<path d="M155.76 536.17L110.37 438.45L219.09 447.8L155.76 536.17Z" fill="#34457E"/>
<path d="M198.2 637.53L155.76 536.17L48.95 525.97L90.52 625.42L198.2 637.53Z" fill="#CD776F"/>
<path d="M110.37 438.45L48.95 525.97L155.76 536.17L110.37 438.45Z" fill="var(--fill-0, #4C5E92)"/>
<path d="M4 185.74L161.23 197.31L97.15 55.75L4 185.74Z" fill="#D78C7D"/>
<path d="M119.69 913.05L72.92 814.81L135.39 724.52L186.66 827.62L119.69 913.05Z" fill="var(--fill-0, #4C5E92)"/>
<path d="M247.22 738.2L186.66 827.62L135.39 724.52L247.22 738.2Z" fill="#CC685F"/>
<path d="M353.51 749.78L289.84 834.87L247.22 738.2L353.51 749.78Z" fill="#34457E"/>
<path d="M198.2 637.53L135.39 724.52L90.52 625.42L198.2 637.53Z" fill="var(--fill-0, #4C5E92)"/>
</g>
<defs>
<filter id="filter0_d_0_13" x="0" y="0" width="811.19" height="1062.45" filterUnits="userSpaceOnUse" color-interpolation-filters="sRGB">
<feFlood flood-opacity="0" result="BackgroundImageFix"/>
<feColorMatrix in="SourceAlpha" type="matrix" values="0 0 0 0 0 0 0 0 0 0 0 0 0 0 0 0 0 0 127 0" result="hardAlpha"/>
<feOffset dy="4"/>
<feGaussianBlur stdDeviation="2"/>
<feComposite in2="hardAlpha" operator="out"/>
<feColorMatrix type="matrix" values="0 0 0 0 0 0 0 0 0 0 0 0 0 0 0 0 0 0 0.25 0"/>
<feBlend mode="normal" in2="BackgroundImageFix" result="effect1_dropShadow_0_13"/>
<feBlend mode="normal" in="SourceGraphic" in2="effect1_dropShadow_0_13" result="shape"/>
</filter>
</defs>
</svg>
